<?xml version="1.0" encoding="UTF-8" standalone="no"?><!DOCTYPE svg PUBLIC "-//W3C//DTD SVG 1.1//EN" "http://www.w3.org/Graphics/SVG/1.1/DTD/svg11.dtd"><svg width="100%" height="100%" viewBox="0 0 25 25" version="1.1" xmlns="http://www.w3.org/2000/svg" xmlns:xlink="http://www.w3.org/1999/xlink" xml:space="preserve" xmlns:serif="http://www.serif.com/" style="fill-rule:evenodd;clip-rule:evenodd;stroke-linejoin:round;stroke-miterlimit:2;"><circle cx="12.5" cy="12.5" r="12.393" style="fill:#fff;"/><circle cx="4.182" cy="8.165" r="0.75" style="fill:#a0f;"/><circle cx="20.759" cy="8.744" r="0.75" style="fill:#a0f;"/><circle cx="12.089" cy="14.587" r="0.75" style="fill:#a0f;"/><circle cx="9.122" cy="19.373" r="0.75" style="fill:#a0f;"/><circle cx="16.763" cy="18.349" r="0.75" style="fill:#a0f;"/><path d="M17.008,18.419l-0.461,-0.192l3.91,-9.409l0.462,0.192l-3.911,9.409Z" style="fill:#a0f;"/><path d="M4.088,8.442l0.458,-0.201l4.697,10.753l-0.458,0.2l-4.697,-10.752Z" style="fill:#a0f;"/><path d="M11.669,14.719l0.427,0.261l-2.674,4.373l-0.427,-0.26l2.674,-4.374Z" style="fill:#a0f;"/><path d="M16.765,18.023l-0.313,0.39l-4.398,-3.528l0.313,-0.39l4.398,3.528Z" style="fill:#a0f;"/><g><g transform="matrix(0.999391,0.034897,-0.034897,0.999391,0.322611,-0.142428)"><text x="4.241px" y="9.171px" style="font-family:'ArialMT', 'Arial', sans-serif;font-size:4px;fill:#a0f;">- - - - - - -</text></g></g><g><g transform="matrix(0.991434,-0.130609,0.130609,0.991434,-2.57218,1.44455)"><text x="9.727px" y="20.332px" style="font-family:'ArialMT', 'Arial', sans-serif;font-size:4px;fill:#a0f;">- - -</text></g></g><g><g transform="matrix(0.828415,-0.560115,0.560115,0.828415,-6.29362,9.88732)"><text x="12.991px" y="15.216px" style="font-family:'ArialMT', 'Arial', sans-serif;font-size:4px;fill:#a0f;">- - - -</text></g></g><g><g transform="matrix(0.768131,0.640293,-0.640293,0.768131,6.68236,-0.360563)"><text x="3.839px" y="9.046px" style="font-family:'ArialMT', 'Arial', sans-serif;font-size:4px;fill:#a0f;">- - - -</text></g></g></svg>