<?xml version="1.0" encoding="UTF-8" standalone="no"?><!DOCTYPE svg PUBLIC "-//W3C//DTD SVG 1.1//EN" "http://www.w3.org/Graphics/SVG/1.1/DTD/svg11.dtd"><svg width="100%" height="100%" viewBox="0 0 18 20" version="1.1" xmlns="http://www.w3.org/2000/svg" xmlns:xlink="http://www.w3.org/1999/xlink" xml:space="preserve" xmlns:serif="http://www.serif.com/" style="fill-rule:evenodd;clip-rule:evenodd;stroke-linejoin:round;stroke-miterlimit:2;"><g><path d="M10.844,7.124c0.655,-0.305 1.489,-0.754 2.324,-1.369c0.176,0.341 0.196,0.639 0.105,0.88c-0.064,0.169 -0.185,0.316 -0.345,0.434c-0.172,0.126 -0.388,0.219 -0.626,0.269c-0.452,0.095 -0.979,0.039 -1.458,-0.214Zm0.113,3.126l0.868,0.468c-1.772,0.927 -2.253,2.648 -2.825,4.324c-0.572,-1.676 -1.054,-3.397 -2.826,-4.324l0.868,-0.468c0.084,-0.03 0.155,-0.083 0.205,-0.153c0.049,-0.07 0.073,-0.153 0.069,-0.236c-0.079,-1.57 0.375,-2.265 0.987,-2.7c0.22,-0.157 0.46,-0.235 0.697,-0.235c0.236,0 0.476,0.078 0.696,0.235c0.612,0.435 1.067,1.13 0.987,2.7c-0.004,0.083 0.02,0.166 0.069,0.236c0.05,0.07 0.121,0.123 0.205,0.153Zm-1.957,-10.25c1.003,0.025 2.008,0.207 2.881,0.56c0.604,0.246 1.168,0.569 1.678,0.957c0.231,0.174 0.421,0.343 0.63,0.538c0.564,0.018 1.388,-0.567 1.771,-1.114c-0.659,2.015 -3.664,4.395 -5.745,5.306c-0.001,-0.001 -0.001,-0.001 -0.002,-0.002c-0.373,-0.266 -0.793,-0.399 -1.213,-0.399c-0.421,0 -0.84,0.133 -1.214,0.399c-0.001,0.001 -0.001,0.001 -0.002,0.002c-2.081,-0.911 -5.086,-3.291 -5.745,-5.306c0.383,0.547 1.207,1.132 1.771,1.114c0.209,-0.195 0.399,-0.364 0.63,-0.538c0.51,-0.388 1.074,-0.711 1.678,-0.957c0.873,-0.353 1.879,-0.535 2.882,-0.56Zm-1.845,7.124c-0.655,-0.305 -1.489,-0.754 -2.324,-1.369c-0.176,0.341 -0.196,0.639 -0.105,0.88c0.064,0.169 0.186,0.316 0.345,0.434c0.172,0.126 0.388,0.219 0.626,0.269c0.452,0.095 0.979,0.039 1.458,-0.214Z" style="fill:#fff;"/><path d="M14.083,5.001c0.46,-0.433 0.865,-0.912 1.191,-1.34l0.165,0.291c0.533,0.994 0.81,1.985 0.81,3.099l-0.002,1.769l0.01,0.917c0.039,2.251 0.561,4.529 1.743,6.613l-2.473,-1.862l-1.75,2.651l-1.839,-1.615l-2.938,4.45l-2.938,-4.45l-1.838,1.615l-1.751,-2.651l-2.473,1.862c1.182,-2.084 1.704,-4.362 1.743,-6.613l0.01,-0.917l-0.001,-1.769c-0,-1.114 0.276,-2.105 0.809,-3.099l0.165,-0.291c0.326,0.428 0.731,0.907 1.191,1.34l-0.144,0.278c-0.279,0.541 -0.371,1.146 -0.154,1.72c0.14,0.371 0.396,0.688 0.725,0.931c0.32,0.235 0.699,0.394 1.096,0.477c0.258,0.054 0.521,0.077 0.783,0.069c-0.061,0.323 -0.088,0.657 -0.09,0.998l-2.333,1.258l1.8,0.942c0.144,0.075 0.281,0.162 0.41,0.258c1.484,1.244 2.377,4.924 2.99,6.721c0.613,-1.797 1.506,-5.477 2.99,-6.721c0.129,-0.096 0.266,-0.183 0.41,-0.258l1.8,-0.942l-2.333,-1.258c-0.002,-0.341 -0.028,-0.675 -0.089,-0.998c0.261,0.008 0.524,-0.015 0.782,-0.069c0.397,-0.083 0.776,-0.242 1.096,-0.477c0.329,-0.243 0.585,-0.56 0.725,-0.931c0.217,-0.574 0.125,-1.179 -0.154,-1.72l-0.144,-0.278l0,0Z" style="fill:#fff;"/></g></svg>