<svg width="12" height="12" viewBox="0 0 12 12" fill="none" xmlns="http://www.w3.org/2000/svg">
<path d="M5.53152 6.46878H1.78152L2.74543 7.42315C2.83835 7.51607 2.88585 7.62805 2.88793 7.75909C2.88991 7.89003 2.84241 8.00399 2.74543 8.10097C2.64845 8.19795 2.53548 8.24644 2.40652 8.24644C2.27757 8.24644 2.1646 8.19795 2.06762 8.10097L0.361992 6.3955C0.303555 6.33696 0.262305 6.27524 0.238242 6.21034C0.21418 6.14545 0.202148 6.07534 0.202148 6.00003C0.202148 5.92472 0.21418 5.85461 0.238242 5.78972C0.262305 5.72482 0.303555 5.6631 0.361992 5.60456L2.06762 3.89909C2.16053 3.80618 2.2709 3.75868 2.39871 3.75659C2.52652 3.75461 2.63892 3.80211 2.7359 3.89909C2.83277 3.99607 2.88121 4.10743 2.88121 4.23315C2.88121 4.35899 2.83277 4.47039 2.7359 4.56737L1.77184 5.53128H5.53152V1.77159L4.55793 2.74519C4.46501 2.8381 4.35626 2.88399 4.23168 2.88284C4.1071 2.88159 3.99632 2.83253 3.89934 2.73565C3.80236 2.63868 3.75387 2.52727 3.75387 2.40144C3.75387 2.27571 3.80236 2.16435 3.89934 2.06737L5.6048 0.361749C5.66335 0.303311 5.72507 0.262061 5.78996 0.237998C5.85486 0.213936 5.92496 0.201904 6.00027 0.201904C6.07559 0.201904 6.14569 0.213936 6.21059 0.237998C6.27548 0.262061 6.3372 0.303311 6.39574 0.361749L8.1109 2.0769C8.20382 2.16993 8.25126 2.27873 8.25324 2.40331C8.25522 2.52789 8.20777 2.63868 8.1109 2.73565C8.01392 2.83253 7.90251 2.88097 7.77668 2.88097C7.65095 2.88097 7.5396 2.83253 7.44262 2.73565L6.46902 1.77159V5.53128H10.219L9.25512 4.5769C9.1622 4.48399 9.1147 4.37201 9.11262 4.24097C9.11064 4.11003 9.15814 3.99607 9.25512 3.89909C9.3521 3.80211 9.46507 3.75362 9.59402 3.75362C9.72298 3.75362 9.83595 3.80211 9.93293 3.89909L11.6386 5.60456C11.697 5.6631 11.7382 5.72482 11.7623 5.78972C11.7864 5.85461 11.7984 5.92472 11.7984 6.00003C11.7984 6.07534 11.7864 6.14545 11.7623 6.21034C11.7382 6.27524 11.697 6.33696 11.6386 6.3955L9.9234 8.11065C9.83038 8.20357 9.72158 8.2494 9.59699 8.24815C9.47241 8.24701 9.36163 8.19795 9.26465 8.10097C9.16777 8.00399 9.11934 7.89263 9.11934 7.7669C9.11934 7.64107 9.16777 7.52967 9.26465 7.43269L10.2287 6.46878H6.46902V10.2188L7.4234 9.25487C7.51632 9.16196 7.62829 9.11446 7.75934 9.11237C7.89027 9.11039 8.00423 9.15789 8.10121 9.25487C8.19819 9.35185 8.24668 9.46482 8.24668 9.59378C8.24668 9.72274 8.19819 9.83571 8.10121 9.93269L6.39574 11.6383C6.3372 11.6967 6.27548 11.738 6.21059 11.7621C6.14569 11.7861 6.07559 11.7982 6.00027 11.7982C5.92496 11.7982 5.85486 11.7861 5.78996 11.7621C5.72507 11.738 5.66335 11.6967 5.6048 11.6383L3.88965 9.92315C3.79673 9.83013 3.7509 9.71972 3.75215 9.5919C3.75329 9.4642 3.80236 9.35185 3.89934 9.25487C3.99632 9.15789 4.10767 9.1094 4.2334 9.1094C4.35923 9.1094 4.47064 9.15789 4.56762 9.25487L5.53152 10.2285V6.46878Z" fill="black"/>
</svg>
