<svg width="17" height="17" xmlns="http://www.w3.org/2000/svg" fill="none">
 <defs>
  <clipPath id="clip0_5232_14798">
   <rect id="svg_1" x="0.40625" y="0.12061" fill="white" height="16" width="16"/>
  </clipPath>
 </defs>
 <g>
  <title>Layer 1</title>
  <g>
   <g transform="matrix(0.887013 0 0 0.887013 0.833001 1.02065)">
    <g transform="matrix(0.0264946 0 0 0.0264946 -0.939108 0.0900432)">
     <rect fill="rgb(255,85,85)" height="138.822" width="64.784" y="490.89288" x="361.6864"/>
    </g>
    <g transform="matrix(0.0264946 0 0 0.0264946 -0.939108 0.0900432)">
     <rect fill="rgb(255,85,85)" height="223.321" width="64.784" y="406.39388" x="446.1854"/>
    </g>
    <g transform="matrix(0.0264946 0 0 0.0264946 -0.939108 0.0900432)">
     <rect fill="rgb(255,85,85)" height="307.82" width="64.784" y="321.89488" x="530.6844"/>
    </g>
    <g transform="matrix(0.0264946 0 0 0.0264946 -0.939108 0.0900432)">
     <g>
      <rect fill="rgb(255,85,85)" height="513.642" width="86.913" y="116.07288" x="21.2754"/>
      <rect fill="rgb(255,85,85)" height="513.642" width="86.913" y="116.07288" x="615.1834"/>
     </g>
     <g>
      <path fill="rgb(255,85,85)" d="m300.2294,401.86788l401.867,-401.868l0,122.914l-340.41,340.411l-61.457,-61.457z"/>
      <path fill="rgb(255,85,85)" d="m21.2754,-0.00012l401.868,401.868l-61.457,61.457l-340.411,-340.411l0,-122.914z"/>
     </g>
    </g>
   </g>
  </g>
  <g>
   <g transform="matrix(0.887013 0 0 0.887013 0.833001 1.02065)">
    <g transform="matrix(0.0264946 0 0 0.0264946 -0.939108 0.0900432)">
     <rect fill="rgb(255,85,85)" height="138.822" width="64.784" y="490.89288" x="361.6864"/>
    </g>
    <g transform="matrix(0.0264946 0 0 0.0264946 -0.939108 0.0900432)">
     <rect fill="rgb(255,85,85)" height="223.321" width="64.784" y="406.39388" x="446.1854"/>
    </g>
    <g transform="matrix(0.0264946 0 0 0.0264946 -0.939108 0.0900432)">
     <rect fill="rgb(255,85,85)" height="307.82" width="64.784" y="321.89488" x="530.6844"/>
    </g>
    <g transform="matrix(0.0264946 0 0 0.0264946 -0.939108 0.0900432)">
     <g>
      <rect fill="rgb(255,85,85)" height="513.642" width="86.913" y="116.07288" x="21.2754"/>
      <rect fill="rgb(255,85,85)" height="513.642" width="86.913" y="116.07288" x="615.1834"/>
     </g>
     <g>
      <path fill="rgb(255,85,85)" d="m300.2294,401.86788l401.867,-401.868l0,122.914l-340.41,340.411l-61.457,-61.457z"/>
      <path fill="rgb(255,85,85)" d="m21.2754,-0.00012l401.868,401.868l-61.457,61.457l-340.411,-340.411l0,-122.914z"/>
     </g>
    </g>
   </g>
  </g>
 </g>
</svg>