<svg width="82" height="82" viewBox="0 0 82 82" fill="none" xmlns="http://www.w3.org/2000/svg" xmlns:xlink="http://www.w3.org/1999/xlink">
<rect x="1" y="1" width="80" height="80" rx="20" fill="#181818" stroke="#A8A7A3" stroke-width="0.865307"/>
<path d="M36.0645 24.8535C36.5614 24.8535 37.0532 24.876 37.5387 24.92C38.6161 25.0175 38.7752 26.4426 37.8856 27.0582C37.6481 27.2226 37.3625 27.2985 37.0744 27.2778C36.8576 27.2622 36.6394 27.2517 36.4199 27.2461L36.0645 27.2412C28.4657 27.2412 22.3057 33.4013 22.3057 41L22.3105 41.3555C22.4961 48.6718 28.3927 54.5684 35.709 54.7539L36.0645 54.7588C36.3992 54.7588 36.731 54.7462 37.0597 54.7222C37.3478 54.7012 37.6333 54.7775 37.8707 54.9422C38.7597 55.5588 38.5995 56.9841 37.522 57.0811C37.0419 57.1243 36.5558 57.1465 36.0645 57.1465C27.1469 57.1465 19.918 49.9176 19.918 41C19.918 32.0824 27.1468 24.8535 36.0645 24.8535Z" fill="url(#pattern0_710_5827)"/>
<path d="M47.5195 26.4434C55.5618 26.4435 62.0811 32.9635 62.0811 41.0059C62.0809 49.048 55.5617 55.5672 47.5195 55.5674C39.4772 55.5674 32.9572 49.0481 32.957 41.0059C32.957 35.3848 36.142 30.5074 40.8057 28.0801C40.8119 28.0769 40.818 28.0735 40.8242 28.0703C41.1771 27.8873 41.5382 27.7177 41.9072 27.5635C41.9324 27.5529 41.9581 27.5436 41.9834 27.5332C42.0864 27.4908 42.1898 27.4492 42.2939 27.4092C42.317 27.4003 42.3402 27.3916 42.3633 27.3828C42.461 27.3458 42.5595 27.3103 42.6582 27.2754C42.686 27.2656 42.7134 27.2548 42.7412 27.2451C44.2379 26.7255 45.8459 26.4434 47.5195 26.4434Z" fill="url(#pattern1_710_5827)"/>
<path d="M36.0645 24.8535C36.5614 24.8535 37.0532 24.876 37.5387 24.92C38.6161 25.0175 38.7752 26.4426 37.8856 27.0582C37.6481 27.2226 37.3625 27.2985 37.0744 27.2778C36.8576 27.2622 36.6394 27.2517 36.4199 27.2461L36.0645 27.2412C28.4657 27.2412 22.3057 33.4013 22.3057 41L22.3105 41.3555C22.4961 48.6718 28.3927 54.5684 35.709 54.7539L36.0645 54.7588C36.3992 54.7588 36.731 54.7462 37.0597 54.7222C37.3478 54.7012 37.6333 54.7775 37.8707 54.9422C38.7597 55.5588 38.5995 56.9841 37.522 57.0811C37.0419 57.1243 36.5558 57.1465 36.0645 57.1465C27.1469 57.1465 19.918 49.9176 19.918 41C19.918 32.0824 27.1468 24.8535 36.0645 24.8535Z" stroke="#A8A7A3" stroke-width="0.931443"/>
<path d="M47.5195 26.4434C55.5618 26.4435 62.0811 32.9635 62.0811 41.0059C62.0809 49.048 55.5617 55.5672 47.5195 55.5674C39.4772 55.5674 32.9572 49.0481 32.957 41.0059C32.957 35.3848 36.142 30.5074 40.8057 28.0801C40.8119 28.0769 40.818 28.0735 40.8242 28.0703C41.1771 27.8873 41.5382 27.7177 41.9072 27.5635C41.9324 27.5529 41.9581 27.5436 41.9834 27.5332C42.0864 27.4908 42.1898 27.4492 42.2939 27.4092C42.317 27.4003 42.3402 27.3916 42.3633 27.3828C42.461 27.3458 42.5595 27.3103 42.6582 27.2754C42.686 27.2656 42.7134 27.2548 42.7412 27.2451C44.2379 26.7255 45.8459 26.4434 47.5195 26.4434Z" stroke="#A8A7A3" stroke-width="0.931443"/>
<defs>
<pattern id="pattern0_710_5827" patternUnits="userSpaceOnUse" patternTransform="matrix(37.2577 0 0 37.2577 19.918 24.8535)" preserveAspectRatio="none" viewBox="0 0 40 40" width="1" height="1">
<g id="pattern0_710_5827_inner">
<g clip-path="url(#clip0_710_5827)">
<rect x="258.659" y="-269" width="1" height="400" transform="rotate(45 258.659 -269)" fill="#A8A7A3"/>
<rect x="258.659" y="-264.45" width="1" height="400" transform="rotate(45 258.659 -264.45)" fill="#A8A7A3"/>
<rect x="258.659" y="-259.9" width="1" height="400" transform="rotate(45 258.659 -259.9)" fill="#A8A7A3"/>
<rect x="258.659" y="-255.351" width="1" height="400" transform="rotate(45 258.659 -255.351)" fill="#A8A7A3"/>
<rect x="258.659" y="-250.801" width="1" height="400" transform="rotate(45 258.659 -250.801)" fill="#A8A7A3"/>
<rect x="258.659" y="-246.251" width="1" height="400" transform="rotate(45 258.659 -246.251)" fill="#A8A7A3"/>
<rect x="258.659" y="-241.701" width="1" height="400" transform="rotate(45 258.659 -241.701)" fill="#A8A7A3"/>
<rect x="258.659" y="-237.151" width="1" height="400" transform="rotate(45 258.659 -237.151)" fill="#A8A7A3"/>
<rect x="258.659" y="-232.602" width="1" height="400" transform="rotate(45 258.659 -232.602)" fill="#A8A7A3"/>
<rect x="258.659" y="-228.052" width="1" height="400" transform="rotate(45 258.659 -228.052)" fill="#A8A7A3"/>
<rect x="258.659" y="-223.502" width="1" height="400" transform="rotate(45 258.659 -223.502)" fill="#A8A7A3"/>
<rect x="258.659" y="-218.952" width="1" height="400" transform="rotate(45 258.659 -218.952)" fill="#A8A7A3"/>
<rect x="258.659" y="-214.402" width="1" height="400" transform="rotate(45 258.659 -214.402)" fill="#A8A7A3"/>
<rect x="258.659" y="-209.853" width="1" height="400" transform="rotate(45 258.659 -209.853)" fill="#A8A7A3"/>
<rect x="258.659" y="-205.303" width="1" height="400" transform="rotate(45 258.659 -205.303)" fill="#A8A7A3"/>
<rect x="258.659" y="-200.753" width="1" height="400" transform="rotate(45 258.659 -200.753)" fill="#A8A7A3"/>
<rect x="258.659" y="-196.203" width="1" height="400" transform="rotate(45 258.659 -196.203)" fill="#A8A7A3"/>
<rect x="258.659" y="-191.653" width="1" height="400" transform="rotate(45 258.659 -191.653)" fill="#A8A7A3"/>
<rect x="258.659" y="-187.104" width="1" height="400" transform="rotate(45 258.659 -187.104)" fill="#A8A7A3"/>
<rect x="258.659" y="-182.554" width="1" height="400" transform="rotate(45 258.659 -182.554)" fill="#A8A7A3"/>
<rect x="258.659" y="-178.004" width="1" height="400" transform="rotate(45 258.659 -178.004)" fill="#A8A7A3"/>
<rect x="258.659" y="-173.454" width="1" height="400" transform="rotate(45 258.659 -173.454)" fill="#A8A7A3"/>
<rect x="258.659" y="-168.904" width="1" height="400" transform="rotate(45 258.659 -168.904)" fill="#A8A7A3"/>
<rect x="258.659" y="-164.354" width="1" height="400" transform="rotate(45 258.659 -164.354)" fill="#A8A7A3"/>
<rect x="258.659" y="-159.805" width="1" height="400" transform="rotate(45 258.659 -159.805)" fill="#A8A7A3"/>
<rect x="258.659" y="-155.255" width="1" height="400" transform="rotate(45 258.659 -155.255)" fill="#A8A7A3"/>
<rect x="258.659" y="-150.705" width="1" height="400" transform="rotate(45 258.659 -150.705)" fill="#A8A7A3"/>
<rect x="258.659" y="-146.155" width="1" height="400" transform="rotate(45 258.659 -146.155)" fill="#A8A7A3"/>
<rect x="258.659" y="-141.605" width="1" height="400" transform="rotate(45 258.659 -141.605)" fill="#A8A7A3"/>
<rect x="258.659" y="-137.056" width="1" height="400" transform="rotate(45 258.659 -137.056)" fill="#A8A7A3"/>
<rect x="258.659" y="-132.506" width="1" height="400" transform="rotate(45 258.659 -132.506)" fill="#A8A7A3"/>
<rect x="258.659" y="-127.956" width="1" height="400" transform="rotate(45 258.659 -127.956)" fill="#A8A7A3"/>
<rect x="258.659" y="-123.406" width="1" height="400" transform="rotate(45 258.659 -123.406)" fill="#A8A7A3"/>
<rect x="258.659" y="-118.856" width="1" height="400" transform="rotate(45 258.659 -118.856)" fill="#A8A7A3"/>
<rect x="258.659" y="-114.307" width="1" height="400" transform="rotate(45 258.659 -114.307)" fill="#A8A7A3"/>
<rect x="258.659" y="-109.757" width="1" height="400" transform="rotate(45 258.659 -109.757)" fill="#A8A7A3"/>
<rect x="258.659" y="-105.207" width="1" height="400" transform="rotate(45 258.659 -105.207)" fill="#A8A7A3"/>
<rect x="258.659" y="-100.657" width="1" height="400" transform="rotate(45 258.659 -100.657)" fill="#A8A7A3"/>
<rect x="258.659" y="-96.1074" width="1" height="400" transform="rotate(45 258.659 -96.1074)" fill="#A8A7A3"/>
<rect x="258.659" y="-91.5576" width="1" height="400" transform="rotate(45 258.659 -91.5576)" fill="#A8A7A3"/>
</g>
</g>
</pattern><pattern id="pattern1_710_5827" patternUnits="userSpaceOnUse" patternTransform="matrix(37.2577 0 0 37.2577 19.918 24.8535)" preserveAspectRatio="none" viewBox="0 0 40 40" width="1" height="1">
<g id="pattern1_710_5827_inner">
<g clip-path="url(#clip1_710_5827)">
<rect x="258.659" y="-269" width="1" height="400" transform="rotate(45 258.659 -269)" fill="#A8A7A3"/>
<rect x="258.659" y="-264.45" width="1" height="400" transform="rotate(45 258.659 -264.45)" fill="#A8A7A3"/>
<rect x="258.659" y="-259.9" width="1" height="400" transform="rotate(45 258.659 -259.9)" fill="#A8A7A3"/>
<rect x="258.659" y="-255.351" width="1" height="400" transform="rotate(45 258.659 -255.351)" fill="#A8A7A3"/>
<rect x="258.659" y="-250.801" width="1" height="400" transform="rotate(45 258.659 -250.801)" fill="#A8A7A3"/>
<rect x="258.659" y="-246.251" width="1" height="400" transform="rotate(45 258.659 -246.251)" fill="#A8A7A3"/>
<rect x="258.659" y="-241.701" width="1" height="400" transform="rotate(45 258.659 -241.701)" fill="#A8A7A3"/>
<rect x="258.659" y="-237.151" width="1" height="400" transform="rotate(45 258.659 -237.151)" fill="#A8A7A3"/>
<rect x="258.659" y="-232.602" width="1" height="400" transform="rotate(45 258.659 -232.602)" fill="#A8A7A3"/>
<rect x="258.659" y="-228.052" width="1" height="400" transform="rotate(45 258.659 -228.052)" fill="#A8A7A3"/>
<rect x="258.659" y="-223.502" width="1" height="400" transform="rotate(45 258.659 -223.502)" fill="#A8A7A3"/>
<rect x="258.659" y="-218.952" width="1" height="400" transform="rotate(45 258.659 -218.952)" fill="#A8A7A3"/>
<rect x="258.659" y="-214.402" width="1" height="400" transform="rotate(45 258.659 -214.402)" fill="#A8A7A3"/>
<rect x="258.659" y="-209.853" width="1" height="400" transform="rotate(45 258.659 -209.853)" fill="#A8A7A3"/>
<rect x="258.659" y="-205.303" width="1" height="400" transform="rotate(45 258.659 -205.303)" fill="#A8A7A3"/>
<rect x="258.659" y="-200.753" width="1" height="400" transform="rotate(45 258.659 -200.753)" fill="#A8A7A3"/>
<rect x="258.659" y="-196.203" width="1" height="400" transform="rotate(45 258.659 -196.203)" fill="#A8A7A3"/>
<rect x="258.659" y="-191.653" width="1" height="400" transform="rotate(45 258.659 -191.653)" fill="#A8A7A3"/>
<rect x="258.659" y="-187.104" width="1" height="400" transform="rotate(45 258.659 -187.104)" fill="#A8A7A3"/>
<rect x="258.659" y="-182.554" width="1" height="400" transform="rotate(45 258.659 -182.554)" fill="#A8A7A3"/>
<rect x="258.659" y="-178.004" width="1" height="400" transform="rotate(45 258.659 -178.004)" fill="#A8A7A3"/>
<rect x="258.659" y="-173.454" width="1" height="400" transform="rotate(45 258.659 -173.454)" fill="#A8A7A3"/>
<rect x="258.659" y="-168.904" width="1" height="400" transform="rotate(45 258.659 -168.904)" fill="#A8A7A3"/>
<rect x="258.659" y="-164.354" width="1" height="400" transform="rotate(45 258.659 -164.354)" fill="#A8A7A3"/>
<rect x="258.659" y="-159.805" width="1" height="400" transform="rotate(45 258.659 -159.805)" fill="#A8A7A3"/>
<rect x="258.659" y="-155.255" width="1" height="400" transform="rotate(45 258.659 -155.255)" fill="#A8A7A3"/>
<rect x="258.659" y="-150.705" width="1" height="400" transform="rotate(45 258.659 -150.705)" fill="#A8A7A3"/>
<rect x="258.659" y="-146.155" width="1" height="400" transform="rotate(45 258.659 -146.155)" fill="#A8A7A3"/>
<rect x="258.659" y="-141.605" width="1" height="400" transform="rotate(45 258.659 -141.605)" fill="#A8A7A3"/>
<rect x="258.659" y="-137.056" width="1" height="400" transform="rotate(45 258.659 -137.056)" fill="#A8A7A3"/>
<rect x="258.659" y="-132.506" width="1" height="400" transform="rotate(45 258.659 -132.506)" fill="#A8A7A3"/>
<rect x="258.659" y="-127.956" width="1" height="400" transform="rotate(45 258.659 -127.956)" fill="#A8A7A3"/>
<rect x="258.659" y="-123.406" width="1" height="400" transform="rotate(45 258.659 -123.406)" fill="#A8A7A3"/>
<rect x="258.659" y="-118.856" width="1" height="400" transform="rotate(45 258.659 -118.856)" fill="#A8A7A3"/>
<rect x="258.659" y="-114.307" width="1" height="400" transform="rotate(45 258.659 -114.307)" fill="#A8A7A3"/>
<rect x="258.659" y="-109.757" width="1" height="400" transform="rotate(45 258.659 -109.757)" fill="#A8A7A3"/>
<rect x="258.659" y="-105.207" width="1" height="400" transform="rotate(45 258.659 -105.207)" fill="#A8A7A3"/>
<rect x="258.659" y="-100.657" width="1" height="400" transform="rotate(45 258.659 -100.657)" fill="#A8A7A3"/>
<rect x="258.659" y="-96.1074" width="1" height="400" transform="rotate(45 258.659 -96.1074)" fill="#A8A7A3"/>
<rect x="258.659" y="-91.5576" width="1" height="400" transform="rotate(45 258.659 -91.5576)" fill="#A8A7A3"/>
</g>
</g>
</pattern><clipPath id="clip0_710_5827">
<rect width="40" height="40" fill="white"/>
</clipPath>
<clipPath id="clip1_710_5827">
<rect width="40" height="40" fill="white"/>
</clipPath>
</defs>
</svg>
