<svg width="82" height="82" viewBox="0 0 82 82" fill="none" xmlns="http://www.w3.org/2000/svg" xmlns:xlink="http://www.w3.org/1999/xlink">
<path d="M1 21C1 9.95431 9.95431 1 21 1H61C72.0457 1 81 9.95431 81 21V61C81 72.0457 72.0457 81 61 81H21C9.95431 81 1 72.0457 1 61V21Z" fill="#181818" stroke="#A8A7A3" stroke-width="0.865307"/>
<path d="M17.8 58.3608V23.1813C17.8 22.942 17.902 22.8052 18.14 22.8052C18.718 22.8052 19.262 22.8052 20.044 22.771C20.826 22.7368 21.71 22.7368 22.628 22.7027C23.546 22.6685 24.532 22.6685 25.586 22.6343C26.64 22.6001 27.66 22.6001 28.68 22.6001C31.468 22.6001 33.78 22.942 35.684 23.6599C37.3908 24.2427 38.9471 25.2004 40.24 26.4633C41.3356 27.5686 42.1821 28.8978 42.722 30.3608C43.2367 31.7855 43.5013 33.2894 43.504 34.8052C43.504 37.7454 42.824 40.1727 41.464 42.0873C40.0977 43.9992 38.1901 45.4527 35.99 46.2582C33.678 47.1129 31.128 47.4206 28.34 47.4206C27.524 47.4206 26.98 47.4206 26.64 47.3864C26.3 47.3522 25.824 47.3522 25.178 47.3522V58.3266C25.1856 58.3829 25.1819 58.4401 25.167 58.4948C25.1522 58.5496 25.1266 58.6009 25.0917 58.6455C25.0569 58.6901 25.0134 58.7273 24.964 58.7547C24.9146 58.7822 24.8602 58.7993 24.804 58.8052H18.208C17.936 58.8052 17.8 58.6685 17.8 58.3608ZM25.212 29.4035V40.8907C25.688 40.9249 26.13 40.9591 26.538 40.9591H28.34C29.6673 40.9607 30.9867 40.753 32.25 40.3437C33.3339 40.0232 34.3022 39.3938 35.038 38.5317C35.752 37.677 36.092 36.5146 36.092 35.0104C36.124 33.942 35.8527 32.8866 35.31 31.9676C34.7431 31.08 33.9093 30.3973 32.93 30.0189C31.6536 29.5162 30.2879 29.2835 28.918 29.3351C28.034 29.3351 27.252 29.3351 26.606 29.3693C26.1413 29.3388 25.6747 29.3502 25.212 29.4035Z" fill="url(#pattern0_710_5832)" stroke="#A8A7A3" stroke-width="0.931443"/>
<path d="M63.9201 38.8056C62.8935 38.2619 61.7941 37.8704 60.6561 37.6432C59.4062 37.3586 58.1296 37.2096 56.8481 37.1988C56.16 37.1749 55.4722 37.2556 54.8081 37.4381C54.3846 37.5267 54.009 37.7704 53.7541 38.1218C53.5823 38.3992 53.4883 38.7182 53.4821 39.0449C53.4979 39.3702 53.6171 39.6817 53.8221 39.9338C54.1443 40.3139 54.5369 40.6274 54.9781 40.8569C55.7601 41.2671 56.5761 41.6432 57.3921 41.9851C59.229 42.6069 60.9865 43.4446 62.6281 44.4808C63.7447 45.1868 64.668 46.1622 65.3141 47.3184C65.8605 48.4091 66.1291 49.619 66.0961 50.8398C66.1237 52.4557 65.6611 54.0417 64.7701 55.3868C63.8217 56.7515 62.4985 57.8089 60.9621 58.4295C59.2961 59.1475 57.2561 59.5235 54.8081 59.5235C53.2559 59.5298 51.707 59.381 50.1841 59.0791C48.9849 58.8707 47.8187 58.5028 46.7161 57.9851C46.5975 57.9253 46.499 57.8319 46.4325 57.7165C46.3661 57.6011 46.3346 57.4687 46.3421 57.3355V51.3868C46.3392 51.3284 46.3499 51.2701 46.3736 51.2166C46.3972 51.1632 46.433 51.1161 46.4781 51.0791C46.526 51.051 46.5816 51.0392 46.6367 51.0454C46.6918 51.0515 46.7435 51.0753 46.7841 51.1133C48.0938 51.8897 49.5164 52.4549 51.0001 52.7885C52.3101 53.1313 53.6585 53.3036 55.0121 53.3013C56.3041 53.3013 57.2221 53.1304 57.8341 52.8227C58.1071 52.6959 58.3384 52.4935 58.501 52.2391C58.6636 51.9848 58.7507 51.6891 58.7521 51.3868C58.7521 50.9082 58.4801 50.4637 57.9361 50.0193C57.3921 49.5748 56.2701 49.062 54.6041 48.4124C52.895 47.8069 51.2719 46.9794 49.7761 45.9509C48.7107 45.1874 47.828 44.1946 47.1921 43.0449C46.6495 41.9651 46.3808 40.7672 46.4101 39.5577C46.4151 38.0989 46.8147 36.6689 47.5661 35.421C48.4298 34.0485 49.6695 32.9563 51.1361 32.2757C52.7341 31.4552 54.7401 31.0791 57.1541 31.0791C58.565 31.0795 59.974 31.1823 61.3701 31.3868C62.3739 31.5234 63.3565 31.7876 64.2941 32.1731C64.4435 32.2264 64.5658 32.337 64.6341 32.4808C64.6733 32.6143 64.6961 32.752 64.7021 32.8911V38.4637C64.7026 38.5302 64.6875 38.5958 64.658 38.6552C64.6284 38.7146 64.5853 38.7662 64.5321 38.8056C64.3343 38.8771 64.1179 38.8771 63.9201 38.8056Z" fill="url(#pattern1_710_5832)" stroke="#A8A7A3" stroke-width="0.931443"/>
<defs>
<pattern id="pattern0_710_5832" patternUnits="userSpaceOnUse" patternTransform="matrix(37.2577 0 0 37.2577 17.8 22.6001)" preserveAspectRatio="none" viewBox="0 0 40 40" width="1" height="1">
<g id="pattern0_710_5832_inner">
<g clip-path="url(#clip0_710_5832)">
<rect x="258.659" y="-269" width="1" height="400" transform="rotate(45 258.659 -269)" fill="#A8A7A3"/>
<rect x="258.659" y="-264.45" width="1" height="400" transform="rotate(45 258.659 -264.45)" fill="#A8A7A3"/>
<rect x="258.659" y="-259.9" width="1" height="400" transform="rotate(45 258.659 -259.9)" fill="#A8A7A3"/>
<rect x="258.659" y="-255.351" width="1" height="400" transform="rotate(45 258.659 -255.351)" fill="#A8A7A3"/>
<rect x="258.659" y="-250.801" width="1" height="400" transform="rotate(45 258.659 -250.801)" fill="#A8A7A3"/>
<rect x="258.659" y="-246.251" width="1" height="400" transform="rotate(45 258.659 -246.251)" fill="#A8A7A3"/>
<rect x="258.659" y="-241.701" width="1" height="400" transform="rotate(45 258.659 -241.701)" fill="#A8A7A3"/>
<rect x="258.659" y="-237.151" width="1" height="400" transform="rotate(45 258.659 -237.151)" fill="#A8A7A3"/>
<rect x="258.659" y="-232.602" width="1" height="400" transform="rotate(45 258.659 -232.602)" fill="#A8A7A3"/>
<rect x="258.659" y="-228.052" width="1" height="400" transform="rotate(45 258.659 -228.052)" fill="#A8A7A3"/>
<rect x="258.659" y="-223.502" width="1" height="400" transform="rotate(45 258.659 -223.502)" fill="#A8A7A3"/>
<rect x="258.659" y="-218.952" width="1" height="400" transform="rotate(45 258.659 -218.952)" fill="#A8A7A3"/>
<rect x="258.659" y="-214.402" width="1" height="400" transform="rotate(45 258.659 -214.402)" fill="#A8A7A3"/>
<rect x="258.659" y="-209.853" width="1" height="400" transform="rotate(45 258.659 -209.853)" fill="#A8A7A3"/>
<rect x="258.659" y="-205.303" width="1" height="400" transform="rotate(45 258.659 -205.303)" fill="#A8A7A3"/>
<rect x="258.659" y="-200.753" width="1" height="400" transform="rotate(45 258.659 -200.753)" fill="#A8A7A3"/>
<rect x="258.659" y="-196.203" width="1" height="400" transform="rotate(45 258.659 -196.203)" fill="#A8A7A3"/>
<rect x="258.659" y="-191.653" width="1" height="400" transform="rotate(45 258.659 -191.653)" fill="#A8A7A3"/>
<rect x="258.659" y="-187.104" width="1" height="400" transform="rotate(45 258.659 -187.104)" fill="#A8A7A3"/>
<rect x="258.659" y="-182.554" width="1" height="400" transform="rotate(45 258.659 -182.554)" fill="#A8A7A3"/>
<rect x="258.659" y="-178.004" width="1" height="400" transform="rotate(45 258.659 -178.004)" fill="#A8A7A3"/>
<rect x="258.659" y="-173.454" width="1" height="400" transform="rotate(45 258.659 -173.454)" fill="#A8A7A3"/>
<rect x="258.659" y="-168.904" width="1" height="400" transform="rotate(45 258.659 -168.904)" fill="#A8A7A3"/>
<rect x="258.659" y="-164.354" width="1" height="400" transform="rotate(45 258.659 -164.354)" fill="#A8A7A3"/>
<rect x="258.659" y="-159.805" width="1" height="400" transform="rotate(45 258.659 -159.805)" fill="#A8A7A3"/>
<rect x="258.659" y="-155.255" width="1" height="400" transform="rotate(45 258.659 -155.255)" fill="#A8A7A3"/>
<rect x="258.659" y="-150.705" width="1" height="400" transform="rotate(45 258.659 -150.705)" fill="#A8A7A3"/>
<rect x="258.659" y="-146.155" width="1" height="400" transform="rotate(45 258.659 -146.155)" fill="#A8A7A3"/>
<rect x="258.659" y="-141.605" width="1" height="400" transform="rotate(45 258.659 -141.605)" fill="#A8A7A3"/>
<rect x="258.659" y="-137.056" width="1" height="400" transform="rotate(45 258.659 -137.056)" fill="#A8A7A3"/>
<rect x="258.659" y="-132.506" width="1" height="400" transform="rotate(45 258.659 -132.506)" fill="#A8A7A3"/>
<rect x="258.659" y="-127.956" width="1" height="400" transform="rotate(45 258.659 -127.956)" fill="#A8A7A3"/>
<rect x="258.659" y="-123.406" width="1" height="400" transform="rotate(45 258.659 -123.406)" fill="#A8A7A3"/>
<rect x="258.659" y="-118.856" width="1" height="400" transform="rotate(45 258.659 -118.856)" fill="#A8A7A3"/>
<rect x="258.659" y="-114.307" width="1" height="400" transform="rotate(45 258.659 -114.307)" fill="#A8A7A3"/>
<rect x="258.659" y="-109.757" width="1" height="400" transform="rotate(45 258.659 -109.757)" fill="#A8A7A3"/>
<rect x="258.659" y="-105.207" width="1" height="400" transform="rotate(45 258.659 -105.207)" fill="#A8A7A3"/>
<rect x="258.659" y="-100.657" width="1" height="400" transform="rotate(45 258.659 -100.657)" fill="#A8A7A3"/>
<rect x="258.659" y="-96.1074" width="1" height="400" transform="rotate(45 258.659 -96.1074)" fill="#A8A7A3"/>
<rect x="258.659" y="-91.5576" width="1" height="400" transform="rotate(45 258.659 -91.5576)" fill="#A8A7A3"/>
</g>
</g>
</pattern><pattern id="pattern1_710_5832" patternUnits="userSpaceOnUse" patternTransform="matrix(37.2577 0 0 37.2577 46.3346 31.0791)" preserveAspectRatio="none" viewBox="0 0 40 40" width="1" height="1">
<g id="pattern1_710_5832_inner">
<g clip-path="url(#clip1_710_5832)">
<rect x="258.659" y="-269" width="1" height="400" transform="rotate(45 258.659 -269)" fill="#A8A7A3"/>
<rect x="258.659" y="-264.45" width="1" height="400" transform="rotate(45 258.659 -264.45)" fill="#A8A7A3"/>
<rect x="258.659" y="-259.9" width="1" height="400" transform="rotate(45 258.659 -259.9)" fill="#A8A7A3"/>
<rect x="258.659" y="-255.351" width="1" height="400" transform="rotate(45 258.659 -255.351)" fill="#A8A7A3"/>
<rect x="258.659" y="-250.801" width="1" height="400" transform="rotate(45 258.659 -250.801)" fill="#A8A7A3"/>
<rect x="258.659" y="-246.251" width="1" height="400" transform="rotate(45 258.659 -246.251)" fill="#A8A7A3"/>
<rect x="258.659" y="-241.701" width="1" height="400" transform="rotate(45 258.659 -241.701)" fill="#A8A7A3"/>
<rect x="258.659" y="-237.151" width="1" height="400" transform="rotate(45 258.659 -237.151)" fill="#A8A7A3"/>
<rect x="258.659" y="-232.602" width="1" height="400" transform="rotate(45 258.659 -232.602)" fill="#A8A7A3"/>
<rect x="258.659" y="-228.052" width="1" height="400" transform="rotate(45 258.659 -228.052)" fill="#A8A7A3"/>
<rect x="258.659" y="-223.502" width="1" height="400" transform="rotate(45 258.659 -223.502)" fill="#A8A7A3"/>
<rect x="258.659" y="-218.952" width="1" height="400" transform="rotate(45 258.659 -218.952)" fill="#A8A7A3"/>
<rect x="258.659" y="-214.402" width="1" height="400" transform="rotate(45 258.659 -214.402)" fill="#A8A7A3"/>
<rect x="258.659" y="-209.853" width="1" height="400" transform="rotate(45 258.659 -209.853)" fill="#A8A7A3"/>
<rect x="258.659" y="-205.303" width="1" height="400" transform="rotate(45 258.659 -205.303)" fill="#A8A7A3"/>
<rect x="258.659" y="-200.753" width="1" height="400" transform="rotate(45 258.659 -200.753)" fill="#A8A7A3"/>
<rect x="258.659" y="-196.203" width="1" height="400" transform="rotate(45 258.659 -196.203)" fill="#A8A7A3"/>
<rect x="258.659" y="-191.653" width="1" height="400" transform="rotate(45 258.659 -191.653)" fill="#A8A7A3"/>
<rect x="258.659" y="-187.104" width="1" height="400" transform="rotate(45 258.659 -187.104)" fill="#A8A7A3"/>
<rect x="258.659" y="-182.554" width="1" height="400" transform="rotate(45 258.659 -182.554)" fill="#A8A7A3"/>
<rect x="258.659" y="-178.004" width="1" height="400" transform="rotate(45 258.659 -178.004)" fill="#A8A7A3"/>
<rect x="258.659" y="-173.454" width="1" height="400" transform="rotate(45 258.659 -173.454)" fill="#A8A7A3"/>
<rect x="258.659" y="-168.904" width="1" height="400" transform="rotate(45 258.659 -168.904)" fill="#A8A7A3"/>
<rect x="258.659" y="-164.354" width="1" height="400" transform="rotate(45 258.659 -164.354)" fill="#A8A7A3"/>
<rect x="258.659" y="-159.805" width="1" height="400" transform="rotate(45 258.659 -159.805)" fill="#A8A7A3"/>
<rect x="258.659" y="-155.255" width="1" height="400" transform="rotate(45 258.659 -155.255)" fill="#A8A7A3"/>
<rect x="258.659" y="-150.705" width="1" height="400" transform="rotate(45 258.659 -150.705)" fill="#A8A7A3"/>
<rect x="258.659" y="-146.155" width="1" height="400" transform="rotate(45 258.659 -146.155)" fill="#A8A7A3"/>
<rect x="258.659" y="-141.605" width="1" height="400" transform="rotate(45 258.659 -141.605)" fill="#A8A7A3"/>
<rect x="258.659" y="-137.056" width="1" height="400" transform="rotate(45 258.659 -137.056)" fill="#A8A7A3"/>
<rect x="258.659" y="-132.506" width="1" height="400" transform="rotate(45 258.659 -132.506)" fill="#A8A7A3"/>
<rect x="258.659" y="-127.956" width="1" height="400" transform="rotate(45 258.659 -127.956)" fill="#A8A7A3"/>
<rect x="258.659" y="-123.406" width="1" height="400" transform="rotate(45 258.659 -123.406)" fill="#A8A7A3"/>
<rect x="258.659" y="-118.856" width="1" height="400" transform="rotate(45 258.659 -118.856)" fill="#A8A7A3"/>
<rect x="258.659" y="-114.307" width="1" height="400" transform="rotate(45 258.659 -114.307)" fill="#A8A7A3"/>
<rect x="258.659" y="-109.757" width="1" height="400" transform="rotate(45 258.659 -109.757)" fill="#A8A7A3"/>
<rect x="258.659" y="-105.207" width="1" height="400" transform="rotate(45 258.659 -105.207)" fill="#A8A7A3"/>
<rect x="258.659" y="-100.657" width="1" height="400" transform="rotate(45 258.659 -100.657)" fill="#A8A7A3"/>
<rect x="258.659" y="-96.1074" width="1" height="400" transform="rotate(45 258.659 -96.1074)" fill="#A8A7A3"/>
<rect x="258.659" y="-91.5576" width="1" height="400" transform="rotate(45 258.659 -91.5576)" fill="#A8A7A3"/>
</g>
</g>
</pattern><clipPath id="clip0_710_5832">
<rect width="40" height="40" fill="white"/>
</clipPath>
<clipPath id="clip1_710_5832">
<rect width="40" height="40" fill="white"/>
</clipPath>
</defs>
</svg>
