<svg width="82" height="82" viewBox="0 0 82 82" fill="none" xmlns="http://www.w3.org/2000/svg" xmlns:xlink="http://www.w3.org/1999/xlink">
<path d="M1 21C1 9.95431 9.95431 1 21 1H61C72.0457 1 81 9.95431 81 21V61C81 72.0457 72.0457 81 61 81H21C9.95431 81 1 72.0457 1 61V21Z" fill="#181818" stroke="#A8A7A3" stroke-width="0.865307"/>
<path d="M42.2402 59.1473H20.6842C20.3102 59.1473 20.1402 58.9422 20.1402 58.5319V23.5917C20.1326 23.5355 20.1363 23.4783 20.1511 23.4235C20.1659 23.3687 20.1915 23.3175 20.2264 23.2728C20.2613 23.2282 20.3047 23.1911 20.3542 23.1636C20.4036 23.1362 20.458 23.119 20.5142 23.1131H27.3142C27.3567 23.1053 27.4003 23.1063 27.4425 23.116C27.4846 23.1256 27.5244 23.1438 27.5594 23.1694C27.5943 23.1949 27.6238 23.2274 27.6459 23.2647C27.668 23.3021 27.6824 23.3435 27.6882 23.3866V52.2071H43.3962C43.7362 52.2071 43.8382 52.3781 43.7702 52.6858L42.7842 58.6345C42.7788 58.713 42.7581 58.7897 42.7231 58.8602C42.688 58.9306 42.6395 58.9933 42.5802 59.0447C42.4804 59.1141 42.3614 59.15 42.2402 59.1473Z" fill="url(#pattern0_710_5838)" stroke="#A8A7A3" stroke-width="0.931443"/>
<path d="M47.6802 31.797H53.6302C53.7913 31.8009 53.9471 31.8559 54.0753 31.9541C54.2036 32.0523 54.2976 32.1888 54.3442 32.344C54.4847 32.5858 54.5771 32.8529 54.6162 33.1303C54.6842 33.4722 54.7522 33.8482 54.7862 34.1901C54.8202 34.532 54.8542 34.9764 54.8542 35.4209C55.875 34.2225 57.1087 33.2255 58.4922 32.4807C60.0455 31.634 61.7917 31.2098 63.5582 31.2499C63.6141 31.2423 63.671 31.2461 63.7255 31.261C63.78 31.2759 63.8309 31.3016 63.8753 31.3367C63.9197 31.3718 63.9566 31.4154 63.9839 31.4651C64.0112 31.5148 64.0283 31.5695 64.0342 31.626V38.4294C64.0342 38.7029 63.8642 38.8055 63.4902 38.8055C61.2867 38.6728 59.0835 39.0713 57.0642 39.9679C56.3755 40.2642 55.7516 40.694 55.2282 41.2328V58.6687C55.2282 59.0106 55.0922 59.1474 54.7862 59.1474H48.1562C48.0934 59.158 48.0292 59.1557 47.9674 59.1406C47.9056 59.1255 47.8475 59.098 47.7966 59.0596C47.7458 59.0212 47.7032 58.9728 47.6715 58.9174C47.6397 58.862 47.6196 58.8006 47.6122 58.7371V39.6602C47.6122 38.8397 47.6122 37.985 47.5782 37.0961C47.5442 36.2072 47.5442 35.3183 47.5102 34.4294C47.4762 33.6773 47.4082 32.9252 47.3062 32.173C47.2971 32.1326 47.2961 32.0908 47.3032 32.05C47.3103 32.0092 47.3254 31.9702 47.3475 31.9353C47.3696 31.9003 47.3983 31.8701 47.4321 31.8464C47.4658 31.8226 47.5039 31.8058 47.5442 31.797C47.5782 31.7628 47.6122 31.7628 47.6802 31.797Z" fill="url(#pattern1_710_5838)" stroke="#A8A7A3" stroke-width="0.931443"/>
<defs>
<pattern id="pattern0_710_5838" patternUnits="userSpaceOnUse" patternTransform="matrix(37.2577 0 0 37.2577 20.1326 23.1053)" preserveAspectRatio="none" viewBox="0 0 40 40" width="1" height="1">
<g id="pattern0_710_5838_inner">
<g clip-path="url(#clip0_710_5838)">
<rect x="258.659" y="-269" width="1" height="400" transform="rotate(45 258.659 -269)" fill="#A8A7A3"/>
<rect x="258.659" y="-264.45" width="1" height="400" transform="rotate(45 258.659 -264.45)" fill="#A8A7A3"/>
<rect x="258.659" y="-259.9" width="1" height="400" transform="rotate(45 258.659 -259.9)" fill="#A8A7A3"/>
<rect x="258.659" y="-255.351" width="1" height="400" transform="rotate(45 258.659 -255.351)" fill="#A8A7A3"/>
<rect x="258.659" y="-250.801" width="1" height="400" transform="rotate(45 258.659 -250.801)" fill="#A8A7A3"/>
<rect x="258.659" y="-246.251" width="1" height="400" transform="rotate(45 258.659 -246.251)" fill="#A8A7A3"/>
<rect x="258.659" y="-241.701" width="1" height="400" transform="rotate(45 258.659 -241.701)" fill="#A8A7A3"/>
<rect x="258.659" y="-237.151" width="1" height="400" transform="rotate(45 258.659 -237.151)" fill="#A8A7A3"/>
<rect x="258.659" y="-232.602" width="1" height="400" transform="rotate(45 258.659 -232.602)" fill="#A8A7A3"/>
<rect x="258.659" y="-228.052" width="1" height="400" transform="rotate(45 258.659 -228.052)" fill="#A8A7A3"/>
<rect x="258.659" y="-223.502" width="1" height="400" transform="rotate(45 258.659 -223.502)" fill="#A8A7A3"/>
<rect x="258.659" y="-218.952" width="1" height="400" transform="rotate(45 258.659 -218.952)" fill="#A8A7A3"/>
<rect x="258.659" y="-214.402" width="1" height="400" transform="rotate(45 258.659 -214.402)" fill="#A8A7A3"/>
<rect x="258.659" y="-209.853" width="1" height="400" transform="rotate(45 258.659 -209.853)" fill="#A8A7A3"/>
<rect x="258.659" y="-205.303" width="1" height="400" transform="rotate(45 258.659 -205.303)" fill="#A8A7A3"/>
<rect x="258.659" y="-200.753" width="1" height="400" transform="rotate(45 258.659 -200.753)" fill="#A8A7A3"/>
<rect x="258.659" y="-196.203" width="1" height="400" transform="rotate(45 258.659 -196.203)" fill="#A8A7A3"/>
<rect x="258.659" y="-191.653" width="1" height="400" transform="rotate(45 258.659 -191.653)" fill="#A8A7A3"/>
<rect x="258.659" y="-187.104" width="1" height="400" transform="rotate(45 258.659 -187.104)" fill="#A8A7A3"/>
<rect x="258.659" y="-182.554" width="1" height="400" transform="rotate(45 258.659 -182.554)" fill="#A8A7A3"/>
<rect x="258.659" y="-178.004" width="1" height="400" transform="rotate(45 258.659 -178.004)" fill="#A8A7A3"/>
<rect x="258.659" y="-173.454" width="1" height="400" transform="rotate(45 258.659 -173.454)" fill="#A8A7A3"/>
<rect x="258.659" y="-168.904" width="1" height="400" transform="rotate(45 258.659 -168.904)" fill="#A8A7A3"/>
<rect x="258.659" y="-164.354" width="1" height="400" transform="rotate(45 258.659 -164.354)" fill="#A8A7A3"/>
<rect x="258.659" y="-159.805" width="1" height="400" transform="rotate(45 258.659 -159.805)" fill="#A8A7A3"/>
<rect x="258.659" y="-155.255" width="1" height="400" transform="rotate(45 258.659 -155.255)" fill="#A8A7A3"/>
<rect x="258.659" y="-150.705" width="1" height="400" transform="rotate(45 258.659 -150.705)" fill="#A8A7A3"/>
<rect x="258.659" y="-146.155" width="1" height="400" transform="rotate(45 258.659 -146.155)" fill="#A8A7A3"/>
<rect x="258.659" y="-141.605" width="1" height="400" transform="rotate(45 258.659 -141.605)" fill="#A8A7A3"/>
<rect x="258.659" y="-137.056" width="1" height="400" transform="rotate(45 258.659 -137.056)" fill="#A8A7A3"/>
<rect x="258.659" y="-132.506" width="1" height="400" transform="rotate(45 258.659 -132.506)" fill="#A8A7A3"/>
<rect x="258.659" y="-127.956" width="1" height="400" transform="rotate(45 258.659 -127.956)" fill="#A8A7A3"/>
<rect x="258.659" y="-123.406" width="1" height="400" transform="rotate(45 258.659 -123.406)" fill="#A8A7A3"/>
<rect x="258.659" y="-118.856" width="1" height="400" transform="rotate(45 258.659 -118.856)" fill="#A8A7A3"/>
<rect x="258.659" y="-114.307" width="1" height="400" transform="rotate(45 258.659 -114.307)" fill="#A8A7A3"/>
<rect x="258.659" y="-109.757" width="1" height="400" transform="rotate(45 258.659 -109.757)" fill="#A8A7A3"/>
<rect x="258.659" y="-105.207" width="1" height="400" transform="rotate(45 258.659 -105.207)" fill="#A8A7A3"/>
<rect x="258.659" y="-100.657" width="1" height="400" transform="rotate(45 258.659 -100.657)" fill="#A8A7A3"/>
<rect x="258.659" y="-96.1074" width="1" height="400" transform="rotate(45 258.659 -96.1074)" fill="#A8A7A3"/>
<rect x="258.659" y="-91.5576" width="1" height="400" transform="rotate(45 258.659 -91.5576)" fill="#A8A7A3"/>
</g>
</g>
</pattern><pattern id="pattern1_710_5838" patternUnits="userSpaceOnUse" patternTransform="matrix(37.2577 0 0 37.2577 47.2961 31.2098)" preserveAspectRatio="none" viewBox="0 0 40 40" width="1" height="1">
<g id="pattern1_710_5838_inner">
<g clip-path="url(#clip1_710_5838)">
<rect x="258.659" y="-269" width="1" height="400" transform="rotate(45 258.659 -269)" fill="#A8A7A3"/>
<rect x="258.659" y="-264.45" width="1" height="400" transform="rotate(45 258.659 -264.45)" fill="#A8A7A3"/>
<rect x="258.659" y="-259.9" width="1" height="400" transform="rotate(45 258.659 -259.9)" fill="#A8A7A3"/>
<rect x="258.659" y="-255.351" width="1" height="400" transform="rotate(45 258.659 -255.351)" fill="#A8A7A3"/>
<rect x="258.659" y="-250.801" width="1" height="400" transform="rotate(45 258.659 -250.801)" fill="#A8A7A3"/>
<rect x="258.659" y="-246.251" width="1" height="400" transform="rotate(45 258.659 -246.251)" fill="#A8A7A3"/>
<rect x="258.659" y="-241.701" width="1" height="400" transform="rotate(45 258.659 -241.701)" fill="#A8A7A3"/>
<rect x="258.659" y="-237.151" width="1" height="400" transform="rotate(45 258.659 -237.151)" fill="#A8A7A3"/>
<rect x="258.659" y="-232.602" width="1" height="400" transform="rotate(45 258.659 -232.602)" fill="#A8A7A3"/>
<rect x="258.659" y="-228.052" width="1" height="400" transform="rotate(45 258.659 -228.052)" fill="#A8A7A3"/>
<rect x="258.659" y="-223.502" width="1" height="400" transform="rotate(45 258.659 -223.502)" fill="#A8A7A3"/>
<rect x="258.659" y="-218.952" width="1" height="400" transform="rotate(45 258.659 -218.952)" fill="#A8A7A3"/>
<rect x="258.659" y="-214.402" width="1" height="400" transform="rotate(45 258.659 -214.402)" fill="#A8A7A3"/>
<rect x="258.659" y="-209.853" width="1" height="400" transform="rotate(45 258.659 -209.853)" fill="#A8A7A3"/>
<rect x="258.659" y="-205.303" width="1" height="400" transform="rotate(45 258.659 -205.303)" fill="#A8A7A3"/>
<rect x="258.659" y="-200.753" width="1" height="400" transform="rotate(45 258.659 -200.753)" fill="#A8A7A3"/>
<rect x="258.659" y="-196.203" width="1" height="400" transform="rotate(45 258.659 -196.203)" fill="#A8A7A3"/>
<rect x="258.659" y="-191.653" width="1" height="400" transform="rotate(45 258.659 -191.653)" fill="#A8A7A3"/>
<rect x="258.659" y="-187.104" width="1" height="400" transform="rotate(45 258.659 -187.104)" fill="#A8A7A3"/>
<rect x="258.659" y="-182.554" width="1" height="400" transform="rotate(45 258.659 -182.554)" fill="#A8A7A3"/>
<rect x="258.659" y="-178.004" width="1" height="400" transform="rotate(45 258.659 -178.004)" fill="#A8A7A3"/>
<rect x="258.659" y="-173.454" width="1" height="400" transform="rotate(45 258.659 -173.454)" fill="#A8A7A3"/>
<rect x="258.659" y="-168.904" width="1" height="400" transform="rotate(45 258.659 -168.904)" fill="#A8A7A3"/>
<rect x="258.659" y="-164.354" width="1" height="400" transform="rotate(45 258.659 -164.354)" fill="#A8A7A3"/>
<rect x="258.659" y="-159.805" width="1" height="400" transform="rotate(45 258.659 -159.805)" fill="#A8A7A3"/>
<rect x="258.659" y="-155.255" width="1" height="400" transform="rotate(45 258.659 -155.255)" fill="#A8A7A3"/>
<rect x="258.659" y="-150.705" width="1" height="400" transform="rotate(45 258.659 -150.705)" fill="#A8A7A3"/>
<rect x="258.659" y="-146.155" width="1" height="400" transform="rotate(45 258.659 -146.155)" fill="#A8A7A3"/>
<rect x="258.659" y="-141.605" width="1" height="400" transform="rotate(45 258.659 -141.605)" fill="#A8A7A3"/>
<rect x="258.659" y="-137.056" width="1" height="400" transform="rotate(45 258.659 -137.056)" fill="#A8A7A3"/>
<rect x="258.659" y="-132.506" width="1" height="400" transform="rotate(45 258.659 -132.506)" fill="#A8A7A3"/>
<rect x="258.659" y="-127.956" width="1" height="400" transform="rotate(45 258.659 -127.956)" fill="#A8A7A3"/>
<rect x="258.659" y="-123.406" width="1" height="400" transform="rotate(45 258.659 -123.406)" fill="#A8A7A3"/>
<rect x="258.659" y="-118.856" width="1" height="400" transform="rotate(45 258.659 -118.856)" fill="#A8A7A3"/>
<rect x="258.659" y="-114.307" width="1" height="400" transform="rotate(45 258.659 -114.307)" fill="#A8A7A3"/>
<rect x="258.659" y="-109.757" width="1" height="400" transform="rotate(45 258.659 -109.757)" fill="#A8A7A3"/>
<rect x="258.659" y="-105.207" width="1" height="400" transform="rotate(45 258.659 -105.207)" fill="#A8A7A3"/>
<rect x="258.659" y="-100.657" width="1" height="400" transform="rotate(45 258.659 -100.657)" fill="#A8A7A3"/>
<rect x="258.659" y="-96.1074" width="1" height="400" transform="rotate(45 258.659 -96.1074)" fill="#A8A7A3"/>
<rect x="258.659" y="-91.5576" width="1" height="400" transform="rotate(45 258.659 -91.5576)" fill="#A8A7A3"/>
</g>
</g>
</pattern><clipPath id="clip0_710_5838">
<rect width="40" height="40" fill="white"/>
</clipPath>
<clipPath id="clip1_710_5838">
<rect width="40" height="40" fill="white"/>
</clipPath>
</defs>
</svg>
