<?xml version="1.0" encoding="UTF-8" standalone="no"?><!DOCTYPE svg PUBLIC "-//W3C//DTD SVG 1.1//EN" "http://www.w3.org/Graphics/SVG/1.1/DTD/svg11.dtd"><svg width="100%" height="100%" viewBox="0 0 1363 117" version="1.1" xmlns="http://www.w3.org/2000/svg" xmlns:xlink="http://www.w3.org/1999/xlink" xml:space="preserve" xmlns:serif="http://www.serif.com/" style="fill-rule:evenodd;clip-rule:evenodd;stroke-linejoin:round;stroke-miterlimit:2;"><g><g transform="matrix(2.0857,0,0,2.0857,-1919.88,-2237.81)"><text x="982.92px" y="1128.08px" style="font-family:'NoirPro-Regular';font-size:78.336px;fill:#fff;">atr<tspan x="1088.83px 1107px " y="1128.08px 1128.08px ">ix</tspan>Qu<tspan x="1251.14px 1298.14px 1341.38px " y="1128.08px 1128.08px 1128.08px ">ant</tspan></text><g transform="matrix(78.3359,0,0,78.3359,1577.02,1128.08)"></g><text x="1394.03px" y="1128.08px" style="font-family:'NoirPro-Regular';font-size:78.336px;fill:#0fa;">L<tspan x="1434.13px " y="1128.08px ">A</tspan>BS</text></g><g><rect x="61.433" y="89.97" width="11.691" height="25.053" style="fill:#fff;"/><rect x="76.682" y="74.721" width="11.691" height="40.302" style="fill:#fff;"/><rect x="91.931" y="59.472" width="11.691" height="55.551" style="fill:#fff;"/><g><g><rect x="0" y="22.328" width="15.685" height="92.695" style="fill:#fff;"/><rect x="107.181" y="22.328" width="15.685" height="92.695" style="fill:#fff;"/></g><g><path d="M50.342,73.904l72.524,-72.524l-0,22.182l-61.433,61.433l-11.091,-11.091Z" style="fill:#fff;"/><path d="M0,1.38l72.524,72.524l-11.091,11.091l-61.433,-61.433l0,-22.182Z" style="fill:#fff;"/></g></g></g></g></svg>