<?xml version="1.0" encoding="UTF-8" standalone="no"?><!DOCTYPE svg PUBLIC "-//W3C//DTD SVG 1.1//EN" "http://www.w3.org/Graphics/SVG/1.1/DTD/svg11.dtd"><svg width="100%" height="100%" viewBox="0 0 238 257" version="1.1" xmlns="http://www.w3.org/2000/svg" xmlns:xlink="http://www.w3.org/1999/xlink" xml:space="preserve" xmlns:serif="http://www.serif.com/" style="fill-rule:evenodd;clip-rule:evenodd;stroke-linejoin:round;stroke-miterlimit:2;"><path d="M73.743,18.673c-3.34,-0.515 -3.481,-0.575 -1.909,-0.815c3.012,-0.461 10.124,0.167 15.025,1.325c11.441,2.703 21.852,9.628 32.965,21.926l2.952,3.267l4.224,-0.675c17.793,-2.842 35.894,-0.584 51.034,6.368c4.165,1.912 10.732,5.719 11.552,6.697c0.261,0.312 0.742,2.319 1.067,4.46c1.125,7.409 0.561,13.088 -1.718,17.33c-1.242,2.308 -1.31,3.039 -0.477,5.015c0.667,1.576 2.523,2.743 4.361,2.74c3.762,-0.005 7.811,-6.05 9.688,-14.461l0.746,-3.341l1.476,1.663c8.099,9.119 14.46,21.557 15.553,30.409l0.284,2.309l-1.362,-2.099c-2.342,-3.611 -4.696,-6.069 -7.711,-8.051c-5.434,-3.574 -11.178,-4.79 -26.395,-5.587c-13.742,-0.719 -21.52,-1.886 -29.232,-4.386c-13.122,-4.252 -19.737,-9.915 -35.323,-30.24c-6.924,-9.028 -11.203,-14.023 -15.459,-18.045c-9.672,-9.14 -19.176,-13.933 -31.341,-15.809Z" style="fill:#fff;fill-rule:nonzero;"/><path d="M192.686,38.83c0.345,-6.049 1.171,-10.04 2.83,-13.683c0.657,-1.443 1.272,-2.623 1.368,-2.623c0.095,-0 -0.191,1.064 -0.635,2.365c-1.206,3.537 -1.404,8.374 -0.573,14.002c1.055,7.14 1.655,8.17 9.248,15.884c3.562,3.618 7.704,8.181 9.206,10.14l2.731,3.562l-2.731,-2.546c-3.34,-3.113 -11.019,-9.184 -12.715,-10.052c-1.138,-0.582 -1.307,-0.572 -2.009,0.122c-0.646,0.64 -0.783,1.601 -0.873,6.144c-0.139,7.081 -1.11,11.626 -3.454,16.171c-1.268,2.458 -1.468,1.933 -0.32,-0.841c0.857,-2.072 0.944,-2.983 0.936,-9.837c-0.012,-13.773 -1.657,-17.085 -11.305,-22.757c-2.444,-1.437 -6.472,-3.509 -8.95,-4.605c-2.477,-1.096 -4.446,-2.051 -4.374,-2.122c0.274,-0.271 9.682,2.459 13.469,3.907c5.633,2.153 6.563,2.433 7.248,2.173c0.458,-0.174 0.68,-1.502 0.903,-5.404Z" style="fill:#fff;fill-rule:nonzero;"/><path d="M80.23,62.392c-6.78,-9.278 -10.975,-23.502 -10.067,-34.136l0.281,-3.29l1.543,0.28c2.899,0.525 7.896,2.374 10.236,3.786c6.421,3.876 9.201,8.979 12.029,22.083c0.829,3.839 1.916,8.182 2.416,9.653c0.805,2.367 3.847,7.895 6.321,11.486c1.781,2.586 0.598,3.811 -3.34,3.458c-6.015,-0.54 -14.163,-6.128 -19.419,-13.32Z" style="fill:#fff;fill-rule:nonzero;"/><path d="M184.462,131.44c-31.686,-12.68 -42.845,-23.686 -42.845,-42.257c-0,-2.733 0.094,-4.969 0.21,-4.969c0.115,0 1.341,0.902 2.724,2.005c6.425,5.122 13.62,7.31 33.538,10.198c11.721,1.699 18.318,3.072 24.402,5.077c19.34,6.376 31.305,19.311 34.158,36.932c0.829,5.121 0.343,14.722 -1.001,19.783c-1.062,3.997 -4.3,11.201 -5.159,11.477c-0.238,0.077 -0.472,-0.831 -0.533,-2.065c-0.325,-6.617 -3.69,-13.058 -9.339,-17.883c-6.423,-5.486 -15.054,-9.854 -36.155,-18.298Z" style="fill:#fff;fill-rule:nonzero;"/><path d="M162.217,136.708c-0.396,-2.349 -1.085,-5.347 -1.53,-6.664l-0.808,-2.394l1.502,1.675c2.078,2.318 3.72,5.285 5.112,9.236c1.062,3.016 1.181,3.912 1.174,8.813c-0.008,4.811 -0.142,5.82 -1.123,8.534c-1.545,4.28 -3.465,7.316 -6.686,10.573c-5.788,5.855 -13.229,9.096 -23.968,10.441c-1.867,0.234 -7.307,0.627 -12.091,0.874c-12.053,0.624 -19.986,1.91 -27.115,4.398c-1.024,0.358 -1.939,0.575 -2.033,0.483c-0.288,-0.285 4.565,-3.16 8.574,-5.079c5.653,-2.707 11.28,-4.184 23.887,-6.271c6.228,-1.03 12.66,-2.281 14.293,-2.779c15.422,-4.7 23.35,-16.828 20.812,-31.84Z" style="fill:#fff;fill-rule:nonzero;"/><path d="M176.742,162.346c-4.209,-8.994 -5.176,-17.679 -2.87,-25.778c0.247,-0.866 0.644,-1.574 0.883,-1.574c0.238,0 1.232,0.534 2.207,1.186c1.94,1.298 5.83,3.484 16.196,9.101c12.935,7.01 20.31,12.437 25.326,18.639c4.391,5.43 7.11,11.615 8.418,19.157c0.74,4.272 0.306,14.552 -0.797,18.854c-3.477,13.564 -11.56,24.219 -23.088,30.436c-1.69,0.911 -3.206,1.659 -3.37,1.662c-0.164,0.004 0.451,-1.551 1.368,-3.456c3.878,-8.057 4.32,-15.895 1.388,-24.619c-1.796,-5.342 -5.457,-11.859 -12.847,-22.875c-8.593,-12.808 -10.7,-16.216 -12.814,-20.733Z" style="fill:#fff;fill-rule:nonzero;"/><path d="M57.728,210.878c11.759,-9.868 26.389,-16.878 39.716,-19.029c5.743,-0.928 15.311,-0.56 20.629,0.793c8.525,2.168 16.151,7.025 20.117,12.811c3.876,5.655 5.539,10.584 7.27,21.549c0.683,4.326 1.426,8.669 1.65,9.652c1.301,5.683 3.831,10.226 6.966,12.507c4.98,3.622 13.555,3.848 21.991,0.578c1.431,-0.556 2.674,-0.939 2.761,-0.853c0.306,0.302 -3.941,3.128 -6.938,4.616c-4.032,2.002 -7.238,2.776 -11.498,2.776c-7.727,-0 -14.141,-3.907 -19.493,-11.872c-1.053,-1.567 -3.421,-6.262 -5.261,-10.432c-5.65,-12.811 -8.44,-16.714 -15.002,-20.984c-5.71,-3.717 -13.074,-4.383 -18.614,-1.683c-7.276,3.546 -9.307,12.79 -4.095,18.646c2.071,2.328 5.934,4.336 9.093,4.727c5.909,0.731 10.988,-3.738 10.988,-9.668c-0,-3.849 -1.49,-6.047 -5.238,-7.728c-5.119,-2.297 -10.622,0.387 -10.595,5.167c0.011,2.039 0.904,3.319 2.959,4.243c1.32,0.594 1.35,0.64 0.275,0.418c-4.698,-0.968 -5.798,-6.596 -2.022,-10.333c4.534,-4.486 13.911,-2.506 17.131,3.617c1.353,2.572 1.51,7.693 0.33,10.786c-2.639,6.923 -10.335,10.563 -18.142,8.582c-5.315,-1.349 -7.479,-2.809 -13.888,-9.37c-11.136,-11.401 -15.46,-13.611 -31.514,-16.102l-3.076,-0.476l3.5,-2.938Z" style="fill:#fff;fill-rule:nonzero;"/><path d="M5.477,6.82c37.189,44.861 62.803,63.37 65.649,67.281c2.35,3.228 1.466,6.131 -2.56,8.406c-2.239,1.265 -6.842,2.547 -9.147,2.547c-2.607,-0 -3.502,-1 -3.502,-1c-1.511,-1.424 -2.363,-1.175 -10.124,-14.869c-10.776,-16.619 -19.794,-30.405 -20.04,-30.635c-0.569,-0.534 -0.559,-0.516 18.941,34.162c3.151,7.228 0.627,9.881 0.627,10.91c-0,2.094 -0.575,3.195 -3.174,6.077c-4.333,4.804 -6.27,10.202 -7.668,21.374c-1.568,12.524 -5.975,21.371 -18.19,36.511c-7.15,8.863 -8.32,10.487 -10.124,14.06c-2.273,4.498 -2.898,7.018 -3.151,12.698c-0.268,6.006 0.254,9.886 2.1,15.629c1.616,5.027 3.303,8.346 7.616,14.986c3.722,5.729 5.865,9.987 5.865,11.653c0,1.325 0.255,1.327 6.022,0.033c13.803,-3.099 25.011,-8.547 31.314,-15.224c3.901,-4.133 4.817,-6.415 4.847,-12.078c0.019,-3.704 -0.112,-4.481 -1.119,-6.612c-1.641,-3.468 -4.626,-6.351 -11.206,-10.823c-8.623,-5.858 -12.305,-10.574 -13.322,-17.06c-0.835,-5.322 0.133,-9.077 4.903,-19.012c4.937,-10.285 6.16,-14.668 6.988,-25.035c0.535,-6.697 1.275,-9.338 3.211,-11.458c2.019,-2.211 3.837,-2.96 8.834,-3.639c8.147,-1.106 13.335,-3.201 17.599,-7.106c3.699,-3.388 5.247,-6.653 5.485,-11.567l0.18,-3.725l-2.067,-2.395c-7.486,-8.676 -79.8,-70.909 -80.261,-70.909c-0.099,0 2.365,3.069 5.474,6.82Zm17.32,174.318c1.693,-2.98 0.794,-6.809 -2.037,-8.68c-2.676,-1.769 -6.831,-0.936 -6.831,1.368c-0,0.703 0.391,1.215 1.273,1.666c1.484,0.759 1.592,1.613 0.424,3.357c-1.183,1.767 -1.088,3.321 0.269,4.376c2.186,1.702 5.282,0.766 6.902,-2.087Z" style="fill:#fff;"/><path d="M87.472,97.656c-3.824,1.168 -7.542,5.197 -8.693,9.421c-0.702,2.577 -0.304,7.098 0.748,8.494c1.699,2.254 3.342,2.849 7.791,2.818c8.709,-0.06 16.282,-3.773 17.161,-8.415c0.722,-3.804 -2.604,-9.077 -7.184,-11.392c-2.364,-1.194 -7.391,-1.668 -9.823,-0.926Zm10.182,7.913c1.343,-1.896 0.755,-3.946 -1.528,-5.333c-4.351,-2.64 -10.93,-0.456 -10.93,3.63c0,2.032 3.431,4.251 6.576,4.251c2.093,-0 4.957,-1.241 5.882,-2.548Z" style="fill:#fff;"/></svg>