<?xml version="1.0" encoding="UTF-8" standalone="no"?><!DOCTYPE svg PUBLIC "-//W3C//DTD SVG 1.1//EN" "http://www.w3.org/Graphics/SVG/1.1/DTD/svg11.dtd"><svg width="100%" height="100%" viewBox="0 0 294 338" version="1.1" xmlns="http://www.w3.org/2000/svg" xmlns:xlink="http://www.w3.org/1999/xlink" xml:space="preserve" xmlns:serif="http://www.serif.com/" style="fill-rule:evenodd;clip-rule:evenodd;stroke-linejoin:round;stroke-miterlimit:2;"><g><path d="M89.395,70.841l-32.047,-18.553l89.395,-52.288l89.395,52.288l-32.047,18.553l-57.348,-32.047l-57.348,32.047Zm170.357,32.048l-0,38.794l32.047,-18.554l0,-38.794l-32.047,-18.554l-32.048,18.554l32.048,18.554Zm-145.056,-18.554l32.047,18.554l32.047,-18.554l-32.047,-18.554l-32.047,18.554Zm121.442,32.047l-32.047,-18.553l-57.348,32.047l-57.348,-32.047l-32.047,18.553l-0,38.794l57.348,32.048l-0,65.781l32.047,18.554l32.047,-18.554l0,-65.781l57.348,-32.048l0,-38.794Zm23.614,118.069l-55.661,32.048l-0,38.794l89.395,-52.288l-0,-102.889l-33.734,18.554l-0,65.781Zm-55.661,5.06l32.047,-18.553l0,-38.794l-32.047,18.553l-0,38.794Zm-89.395,40.481l-0,38.794l32.047,18.554l32.047,-18.554l0,-38.794l-32.047,18.554l-32.047,-18.554Zm-114.696,-156.863l32.047,18.554l0,-38.794l33.734,-18.554l-32.047,-18.554l-33.734,18.554l0,38.794Zm33.734,45.541l-32.047,-18.554l-0,102.889l89.395,52.288l-0,-38.794l-57.348,-32.048l0,-65.781Zm55.661,32.047l-32.047,-18.553l-0,38.794l32.047,18.553l0,-38.794Z" style="fill:#fff;fill-rule:nonzero;"/></g></svg>