<?xml version="1.0" encoding="UTF-8" standalone="no"?><!DOCTYPE svg PUBLIC "-//W3C//DTD SVG 1.1//EN" "http://www.w3.org/Graphics/SVG/1.1/DTD/svg11.dtd"><svg width="100%" height="100%" viewBox="0 0 167 167" version="1.1" xmlns="http://www.w3.org/2000/svg" xmlns:xlink="http://www.w3.org/1999/xlink" xml:space="preserve" xmlns:serif="http://www.serif.com/" style="fill-rule:evenodd;clip-rule:evenodd;stroke-linejoin:round;stroke-miterlimit:2;"><path d="M97.89,59.579c5.114,-2.55 11.622,-6.305 18.138,-11.449c1.374,2.853 1.524,5.343 0.817,7.354c-0.502,1.416 -1.448,2.648 -2.69,3.628c-1.346,1.061 -3.027,1.831 -4.885,2.248c-3.526,0.795 -7.642,0.33 -11.38,-1.781" style="fill:#fff;"/><path d="M98.776,85.71l6.771,3.911c-13.825,7.748 -17.583,22.135 -22.047,36.149c-4.464,-14.014 -8.222,-28.401 -22.047,-36.149l6.771,-3.911c1.308,-0.492 2.21,-1.787 2.141,-3.257c-0.621,-13.124 2.923,-18.928 7.703,-22.571c1.714,-1.306 3.585,-1.962 5.432,-1.962c1.847,0 3.718,0.656 5.432,1.962c4.781,3.643 8.324,9.447 7.704,22.571c-0.07,1.47 0.832,2.765 2.14,3.257Z" style="fill:#fff;"/><path d="M83.5,0.018c7.826,0.21 15.672,1.729 22.481,4.685c4.715,2.049 9.115,4.756 13.098,7.993c1.8,1.461 3.281,2.874 4.913,4.498c4.402,0.152 10.833,-4.737 13.82,-9.312c-5.139,16.848 -28.591,36.745 -44.828,44.358c-0.006,-0.003 -0.011,-0.007 -0.016,-0.01c-2.913,-2.225 -6.19,-3.338 -9.468,-3.338c-3.278,0 -6.554,1.113 -9.468,3.338c-0.005,0.002 -0.009,0.007 -0.016,0.01c-16.236,-7.613 -39.689,-27.51 -44.827,-44.358c2.986,4.575 9.418,9.464 13.819,9.312c1.632,-1.624 3.114,-3.037 4.913,-4.498c3.984,-3.237 8.384,-5.944 13.099,-7.993c6.809,-2.956 14.655,-4.475 22.48,-4.685" style="fill:#fff;"/><path d="M69.111,59.579c-5.115,-2.55 -11.623,-6.305 -18.138,-11.449c-1.375,2.853 -1.525,5.343 -0.817,7.354c0.502,1.416 1.447,2.648 2.689,3.628c1.347,1.061 3.027,1.831 4.886,2.248c3.526,0.795 7.642,0.33 11.38,-1.781" style="fill:#fff;"/><path d="M123.164,41.828c3.588,-3.621 6.748,-7.627 9.29,-11.202l1.29,2.429c4.156,8.313 6.315,16.594 6.315,25.914c0,4.928 -0.022,9.859 -0.009,14.786c0.007,3.091 0.029,4.575 0.077,7.667c0.302,18.818 4.374,37.859 13.598,55.284l-19.299,-15.562l-13.656,22.159l-14.346,-13.504l-22.924,37.201l-22.924,-37.201l-14.346,13.504l-13.656,-22.159l-19.299,15.562c9.225,-17.425 13.296,-36.466 13.598,-55.284c0.048,-3.092 0.07,-4.576 0.078,-7.667c0.012,-4.927 -0.009,-9.858 -0.009,-14.786c-0,-9.32 2.158,-17.601 6.314,-25.914l1.291,-2.429c2.541,3.575 5.701,7.581 9.289,11.202l-1.121,2.326c-2.176,4.52 -2.896,9.573 -1.201,14.379c1.093,3.095 3.087,5.75 5.66,7.776c2.496,1.969 5.451,3.295 8.545,3.992c2.015,0.453 4.069,0.64 6.109,0.577c-0.477,2.698 -0.685,5.496 -0.699,8.348l-18.204,10.514l14.048,7.875c1.147,0.643 2.209,1.366 3.196,2.156c11.582,10.4 18.546,41.163 23.331,56.19c4.785,-15.027 11.749,-45.79 23.331,-56.19c0.988,-0.79 2.048,-1.513 3.196,-2.156l14.048,-7.875l-18.205,-10.514c-0.013,-2.852 -0.221,-5.65 -0.698,-8.348c2.041,0.063 4.094,-0.124 6.109,-0.577c3.094,-0.697 6.049,-2.023 8.545,-3.992c2.573,-2.026 4.567,-4.681 5.66,-7.776c1.695,-4.806 0.975,-9.859 -1.201,-14.379l-1.121,-2.326Z" style="fill:#fff;"/></svg>