<?xml version="1.0" encoding="UTF-8" standalone="no"?><!DOCTYPE svg PUBLIC "-//W3C//DTD SVG 1.1//EN" "http://www.w3.org/Graphics/SVG/1.1/DTD/svg11.dtd"><svg width="100%" height="100%" viewBox="0 0 134 134" version="1.1" xmlns="http://www.w3.org/2000/svg" xmlns:xlink="http://www.w3.org/1999/xlink" xml:space="preserve" xmlns:serif="http://www.serif.com/" style="fill-rule:evenodd;clip-rule:evenodd;stroke-linejoin:round;stroke-miterlimit:2;"><path id="path841" d="M86.249,45.752l-38.669,0c-1.641,0 -2.974,1.246 -2.974,2.783l0,36.182c0,1.537 1.333,2.783 2.974,2.783l38.669,0c1.643,0 2.975,-1.246 2.975,-2.783l0,-36.182c0,-1.537 -1.332,-2.783 -2.975,-2.783Z" style="fill:#fff;fill-rule:nonzero;"/><path id="path843" d="M41.642,4l-38.668,0c-1.643,0 -2.974,1.246 -2.974,2.783l0,36.182c0,1.537 1.331,2.784 2.974,2.784l38.668,0c1.643,0 2.975,-1.247 2.975,-2.784l0,-36.182c0,-1.537 -1.332,-2.783 -2.975,-2.783Z" style="fill:#fff;fill-rule:nonzero;"/><path id="path845" d="M130.891,4l-38.669,0c-1.642,0 -2.975,1.246 -2.975,2.783l0,36.182c0,1.537 1.333,2.784 2.975,2.784l38.669,0c1.643,0 2.974,-1.247 2.974,-2.784l0,-36.182c0,-1.537 -1.331,-2.783 -2.974,-2.783Z" style="fill:#fff;fill-rule:nonzero;"/><path id="path847" d="M41.642,87.499l-38.668,0c-1.643,0 -2.974,1.246 -2.974,2.783l0,36.183c0,1.536 1.331,2.783 2.974,2.783l38.668,0c1.643,0 2.975,-1.247 2.975,-2.783l0,-36.183c0,-1.537 -1.332,-2.783 -2.975,-2.783Z" style="fill:#fff;fill-rule:nonzero;"/><path id="path849" d="M130.891,87.499l-38.669,0c-1.642,0 -2.975,1.246 -2.975,2.783l0,36.183c0,1.536 1.333,2.783 2.975,2.783l38.669,0c1.643,0 2.974,-1.247 2.974,-2.783l0,-36.183c0,-1.537 -1.331,-2.783 -2.974,-2.783Z" style="fill:#fff;fill-rule:nonzero;"/></svg>