<svg width="729" height="374" viewBox="0 0 729 374" fill="none" xmlns="http://www.w3.org/2000/svg">
<path d="M73.8792 372.908L52.5625 372.908C49.8011 372.908 47.5625 370.67 47.5625 367.908L47.5625 323.44C47.5625 320.678 49.8011 318.44 52.5625 318.44L319.452 318.44C322.213 318.44 324.452 320.678 324.452 323.44L324.452 347.959C324.452 350.721 326.691 352.959 329.452 352.959L336.436 352.959C338.465 352.959 340.11 354.605 340.11 356.634L340.11 358.743C340.11 359.608 339.409 360.309 338.544 360.309C337.68 360.309 336.979 361.01 336.979 361.875L336.979 362.409C336.979 363.569 336.039 364.509 334.879 364.509L308.357 364.509C305.596 364.509 303.357 362.27 303.357 359.509L303.357 354.144C303.357 352.33 301.887 350.859 300.073 350.859C298.259 350.859 296.789 352.33 296.789 354.144L296.789 367.908C296.789 370.67 294.55 372.908 291.789 372.908L90.6645 372.908C87.9031 372.908 85.6645 370.67 85.6645 367.908L85.6645 354.252C85.6645 352.378 84.1456 350.859 82.2719 350.859C80.3982 350.859 78.8792 352.378 78.8792 354.252L78.8792 367.908C78.8792 370.67 76.6406 372.908 73.8792 372.908Z" stroke="#8B8C8E" stroke-opacity="0.65"/>
<path d="M377.887 323.711H456.075" stroke="#3A3939"/>
<mask id="mask0_4641_6919" style="mask-type:alpha" maskUnits="userSpaceOnUse" x="47" y="325" width="32" height="39">
<path d="M78.75 363.684H47.5625V325.907H78.75V363.684Z" fill="#D9D9D9"/>
</mask>
<g mask="url(#mask0_4641_6919)">
<g clip-path="url(#clip0_4641_6919)">
<line x1="-44.4468" y1="305.025" x2="53.1155" y2="402.588" stroke="#696761" stroke-opacity="0.9" stroke-width="0.669659"/>
<line x1="-35.4429" y1="305.025" x2="62.1194" y2="402.588" stroke="#696761" stroke-opacity="0.9" stroke-width="0.669659"/>
<line x1="-26.4351" y1="305.025" x2="71.1273" y2="402.588" stroke="#696761" stroke-opacity="0.9" stroke-width="0.669659"/>
<line x1="-17.4312" y1="305.025" x2="80.1312" y2="402.588" stroke="#696761" stroke-opacity="0.9" stroke-width="0.669659"/>
<line x1="-8.4234" y1="305.025" x2="89.139" y2="402.588" stroke="#696761" stroke-opacity="0.9" stroke-width="0.669659"/>
<line x1="0.58051" y1="305.025" x2="98.1429" y2="402.588" stroke="#696761" stroke-opacity="0.9" stroke-width="0.669659"/>
<line x1="9.58832" y1="305.025" x2="107.151" y2="402.588" stroke="#696761" stroke-opacity="0.9" stroke-width="0.669659"/>
<line x1="18.5922" y1="305.025" x2="116.155" y2="402.588" stroke="#696761" stroke-opacity="0.9" stroke-width="0.669659"/>
<line x1="27.6" y1="305.025" x2="125.162" y2="402.588" stroke="#696761" stroke-opacity="0.9" stroke-width="0.669659"/>
<line x1="36.6039" y1="305.025" x2="134.166" y2="402.588" stroke="#696761" stroke-opacity="0.9" stroke-width="0.669659"/>
<line x1="45.6118" y1="305.025" x2="143.174" y2="402.588" stroke="#696761" stroke-opacity="0.9" stroke-width="0.669659"/>
<line x1="54.6157" y1="305.025" x2="152.178" y2="402.588" stroke="#696761" stroke-opacity="0.9" stroke-width="0.669659"/>
<line x1="63.6235" y1="305.025" x2="161.186" y2="402.588" stroke="#696761" stroke-opacity="0.9" stroke-width="0.669659"/>
<line x1="72.6274" y1="305.025" x2="170.19" y2="402.588" stroke="#696761" stroke-opacity="0.9" stroke-width="0.669659"/>
</g>
</g>
<mask id="mask1_4641_6919" style="mask-type:alpha" maskUnits="userSpaceOnUse" x="86" y="326" width="211" height="39">
<path d="M296.186 364.123H86.2188V326.347H296.186V364.123Z" fill="#D9D9D9"/>
</mask>
<g mask="url(#mask1_4641_6919)">
<g clip-path="url(#clip1_4641_6919)">
<line x1="20.5649" y1="305.025" x2="118.127" y2="402.588" stroke="#696761" stroke-opacity="0.9" stroke-width="0.669659"/>
<line x1="29.5688" y1="305.025" x2="127.131" y2="402.588" stroke="#696761" stroke-opacity="0.9" stroke-width="0.669659"/>
<line x1="38.5766" y1="305.025" x2="136.139" y2="402.588" stroke="#696761" stroke-opacity="0.9" stroke-width="0.669659"/>
<line x1="47.5805" y1="305.025" x2="145.143" y2="402.588" stroke="#696761" stroke-opacity="0.9" stroke-width="0.669659"/>
<line x1="56.5883" y1="305.025" x2="154.151" y2="402.588" stroke="#696761" stroke-opacity="0.9" stroke-width="0.669659"/>
<line x1="65.5922" y1="305.025" x2="163.155" y2="402.588" stroke="#696761" stroke-opacity="0.9" stroke-width="0.669659"/>
<line x1="74.6" y1="305.025" x2="172.162" y2="402.588" stroke="#696761" stroke-opacity="0.9" stroke-width="0.669659"/>
<line x1="83.6039" y1="305.025" x2="181.166" y2="402.588" stroke="#696761" stroke-opacity="0.9" stroke-width="0.669659"/>
<line x1="92.6118" y1="305.025" x2="190.174" y2="402.588" stroke="#696761" stroke-opacity="0.9" stroke-width="0.669659"/>
<line x1="101.616" y1="305.025" x2="199.178" y2="402.588" stroke="#696761" stroke-opacity="0.9" stroke-width="0.669659"/>
<line x1="110.623" y1="305.025" x2="208.186" y2="402.588" stroke="#696761" stroke-opacity="0.9" stroke-width="0.669659"/>
<line x1="119.627" y1="305.025" x2="217.19" y2="402.588" stroke="#696761" stroke-opacity="0.9" stroke-width="0.669659"/>
<line x1="128.635" y1="305.025" x2="226.198" y2="402.588" stroke="#696761" stroke-opacity="0.9" stroke-width="0.669659"/>
<line x1="137.639" y1="305.025" x2="235.201" y2="402.588" stroke="#696761" stroke-opacity="0.9" stroke-width="0.669659"/>
<line x1="146.647" y1="305.025" x2="244.209" y2="402.588" stroke="#696761" stroke-opacity="0.9" stroke-width="0.669659"/>
<line x1="155.651" y1="305.025" x2="253.213" y2="402.588" stroke="#696761" stroke-opacity="0.9" stroke-width="0.669659"/>
<line x1="164.659" y1="305.025" x2="262.221" y2="402.588" stroke="#696761" stroke-opacity="0.9" stroke-width="0.669659"/>
<line x1="173.663" y1="305.025" x2="271.225" y2="402.588" stroke="#696761" stroke-opacity="0.9" stroke-width="0.669659"/>
<line x1="182.67" y1="305.025" x2="280.233" y2="402.588" stroke="#696761" stroke-opacity="0.9" stroke-width="0.669659"/>
<line x1="191.674" y1="305.025" x2="289.237" y2="402.588" stroke="#696761" stroke-opacity="0.9" stroke-width="0.669659"/>
<line x1="200.678" y1="305.025" x2="298.241" y2="402.588" stroke="#696761" stroke-opacity="0.9" stroke-width="0.669659"/>
<line x1="209.686" y1="305.025" x2="307.248" y2="402.588" stroke="#696761" stroke-opacity="0.9" stroke-width="0.669659"/>
<line x1="218.69" y1="305.025" x2="316.252" y2="402.588" stroke="#696761" stroke-opacity="0.9" stroke-width="0.669659"/>
<line x1="227.698" y1="305.025" x2="325.26" y2="402.588" stroke="#696761" stroke-opacity="0.9" stroke-width="0.669659"/>
<line x1="236.702" y1="305.025" x2="334.264" y2="402.588" stroke="#696761" stroke-opacity="0.9" stroke-width="0.669659"/>
<line x1="245.709" y1="305.025" x2="343.272" y2="402.588" stroke="#696761" stroke-opacity="0.9" stroke-width="0.669659"/>
<line x1="254.713" y1="305.025" x2="352.276" y2="402.588" stroke="#696761" stroke-opacity="0.9" stroke-width="0.669659"/>
<line x1="263.721" y1="305.025" x2="361.284" y2="402.588" stroke="#696761" stroke-opacity="0.9" stroke-width="0.669659"/>
<line x1="272.725" y1="305.025" x2="370.287" y2="402.588" stroke="#696761" stroke-opacity="0.9" stroke-width="0.669659"/>
<line x1="281.733" y1="305.025" x2="379.295" y2="402.588" stroke="#696761" stroke-opacity="0.9" stroke-width="0.669659"/>
<line x1="290.737" y1="305.025" x2="388.299" y2="402.588" stroke="#696761" stroke-opacity="0.9" stroke-width="0.669659"/>
</g>
</g>
<path d="M721.538 44.3411H7C3.68629 44.3411 1 47.0274 1 50.3411V323.861C1 327.174 3.68629 329.861 7 329.861H375.313C376.928 329.861 378.443 329.081 379.382 327.767L385.094 319.769C386.084 318.384 387.681 317.561 389.384 317.561H443.698C445.4 317.561 446.998 318.384 447.987 319.769L453.7 327.767C454.639 329.081 456.154 329.861 457.769 329.861H721.538C724.851 329.861 727.538 327.174 727.538 323.861V50.3411C727.538 47.0274 724.851 44.3411 721.538 44.3411Z" fill="black" stroke="#8B8C8E" stroke-opacity="0.65"/>
<path d="M17.5446 54.0049H428.992C432.306 54.0049 434.992 56.6912 434.992 60.0049V301.898C434.992 305.211 432.306 307.898 428.992 307.898H384.051C382.113 307.898 380.295 308.834 379.168 310.41L373.973 317.684C372.846 319.261 371.092 320.197 369.154 320.197H17.4878C14.1741 320.197 11.5446 317.511 11.5446 314.197V60.0049C11.5446 56.6912 14.2309 54.0049 17.5446 54.0049Z" fill="black" stroke="#3A3939"/>
<path d="M711.873 54.0049H451.531C448.218 54.0049 445.531 56.6912 445.531 60.0049V304.128C445.531 306.21 447.219 307.898 449.301 307.898C450.519 307.898 451.662 308.486 452.369 309.477L458.232 317.684C459.358 319.261 461.181 320.197 463.118 320.197H711.868C715.182 320.197 717.873 317.511 717.873 314.197V60.0049C717.873 56.6912 715.187 54.0049 711.873 54.0049Z" fill="black" stroke="#3A3939"/>
<rect x="26.5" y="0.5" width="75" height="75" rx="9.5" fill="black" stroke="#8B8C8E" stroke-dasharray="2 2"/>
<rect x="37" y="11" width="54" height="54" rx="6" fill="#7859F4"/>
<mask id="mask2_4641_6919" style="mask-type:alpha" maskUnits="userSpaceOnUse" x="54" y="28" width="20" height="20">
<rect x="54" y="28" width="20" height="20" fill="#D9D9D9"/>
</mask>
<g mask="url(#mask2_4641_6919)">
<path d="M59.4942 46C59.0814 46 58.7292 45.8531 58.4375 45.5594C58.1458 45.2656 58 44.9125 58 44.5V36.5C58 36.0875 58.1469 35.7344 58.4406 35.4406C58.7344 35.1469 59.0875 35 59.5 35H60V33C60 31.8933 60.3905 30.95 61.1715 30.17C61.9523 29.39 62.8967 29 64.0048 29C65.1127 29 66.0556 29.39 66.8333 30.17C67.6111 30.95 68 31.8933 68 33V35H68.5C68.9125 35 69.2656 35.1469 69.5594 35.4406C69.8531 35.7344 70 36.0875 70 36.5V44.5C70 44.9125 69.8531 45.2656 69.5592 45.5594C69.2653 45.8531 68.9119 46 68.4992 46H59.4942ZM59.5 44.5H68.5V36.5H59.5V44.5ZM64.0044 42C64.4181 42 64.7708 41.8527 65.0625 41.5581C65.3542 41.2635 65.5 40.9094 65.5 40.4956C65.5 40.0819 65.3527 39.7292 65.0581 39.4375C64.7635 39.1458 64.4094 39 63.9956 39C63.5819 39 63.2292 39.1473 62.9375 39.4419C62.6458 39.7365 62.5 40.0906 62.5 40.5044C62.5 40.9181 62.6473 41.2708 62.9419 41.5625C63.2365 41.8542 63.5906 42 64.0044 42ZM61.5 35H66.5V33C66.5 32.3056 66.2569 31.7153 65.7708 31.2292C65.2847 30.7431 64.6944 30.5 64 30.5C63.3056 30.5 62.7153 30.7431 62.2292 31.2292C61.7431 31.7153 61.5 32.3056 61.5 33V35Z" fill="white"/>
</g>
<defs>
<clipPath id="clip0_4641_6919">
<rect width="376.741" height="97.5624" fill="white" transform="translate(-44.6836 305.262)"/>
</clipPath>
<clipPath id="clip1_4641_6919">
<rect width="376.741" height="97.5624" fill="white" transform="translate(20.3281 305.262)"/>
</clipPath>
</defs>
</svg>
