<?xml version="1.0" encoding="UTF-8" standalone="no"?><!DOCTYPE svg PUBLIC "-//W3C//DTD SVG 1.1//EN" "http://www.w3.org/Graphics/SVG/1.1/DTD/svg11.dtd"><svg width="100%" height="100%" viewBox="0 0 188 60" version="1.1" xmlns="http://www.w3.org/2000/svg" xmlns:xlink="http://www.w3.org/1999/xlink" xml:space="preserve" xmlns:serif="http://www.serif.com/" style="fill-rule:evenodd;clip-rule:evenodd;stroke-linejoin:round;stroke-miterlimit:2;"><path d="M188,4l0,52c0,2.208 -1.792,4 -4,4l-52,0c-2.208,0 -4,-1.792 -4,-4l0,-52c0,-2.208 1.792,-4 4,-4l52,0c2.208,0 4,1.792 4,4Z" style="fill:#fff;"/><clipPath id="_clip1"><rect x="140.059" y="16.78" width="35.883" height="26.439"/></clipPath><g clip-path="url(#_clip1)"><path d="M175.566,18.999c-0.381,-0.186 -0.544,0.168 -0.768,0.348c-0.075,0.06 -0.14,0.136 -0.204,0.204c-0.556,0.596 -1.204,0.985 -2.051,0.938c-1.241,-0.068 -2.298,0.322 -3.234,1.272c-0.199,-1.172 -0.861,-1.87 -1.866,-2.319c-0.527,-0.234 -1.059,-0.467 -1.426,-0.975c-0.258,-0.359 -0.328,-0.761 -0.458,-1.155c-0.081,-0.241 -0.163,-0.484 -0.438,-0.526c-0.297,-0.047 -0.414,0.204 -0.532,0.412c-0.468,0.857 -0.649,1.801 -0.633,2.758c0.043,2.146 0.949,3.858 2.75,5.076c0.206,0.141 0.257,0.281 0.194,0.485c-0.123,0.42 -0.269,0.826 -0.399,1.245c-0.082,0.269 -0.204,0.328 -0.49,0.211c-0.971,-0.416 -1.853,-1.016 -2.597,-1.766c-1.281,-1.239 -2.439,-2.607 -3.883,-3.679c-0.34,-0.25 -0.678,-0.483 -1.029,-0.705c-1.474,-1.436 0.194,-2.612 0.579,-2.75c0.403,-0.145 0.14,-0.647 -1.163,-0.641c-1.304,0.006 -2.498,0.443 -4.018,1.023c-0.225,0.088 -0.458,0.156 -0.695,0.204c-1.421,-0.266 -2.874,-0.317 -4.31,-0.151c-2.82,0.317 -5.071,1.65 -6.727,3.928c-1.986,2.735 -2.455,5.847 -1.882,9.093c0.603,3.416 2.345,6.249 5.025,8.462c2.775,2.293 5.975,3.418 9.624,3.203c2.215,-0.128 4.684,-0.426 7.467,-2.783c0.702,0.348 1.438,0.487 2.662,0.592c0.941,0.089 1.848,-0.047 2.549,-0.192c1.1,-0.232 1.023,-1.251 0.625,-1.439c-3.221,-1.502 -2.515,-0.892 -3.158,-1.384c1.638,-1.942 4.105,-3.957 5.071,-10.486c0.075,-0.518 0.01,-0.843 -0,-1.264c-0.006,-0.254 0.051,-0.355 0.344,-0.384c0.81,-0.082 1.595,-0.323 2.31,-0.71c2.088,-1.144 2.928,-3.017 3.128,-5.265c0.03,-0.343 -0.006,-0.7 -0.367,-0.88Zm-18.192,20.232c-3.123,-2.458 -4.639,-3.266 -5.263,-3.23c-0.584,0.032 -0.48,0.702 -0.352,1.139c0.135,0.431 0.31,0.728 0.556,1.106c0.171,0.251 0.287,0.625 -0.169,0.903c-1.006,0.626 -2.754,-0.21 -2.837,-0.25c-2.035,-1.198 -3.737,-2.783 -4.936,-4.95c-1.156,-2.085 -1.828,-4.322 -1.94,-6.71c-0.03,-0.578 0.14,-0.782 0.713,-0.885c0.754,-0.144 1.527,-0.164 2.287,-0.06c3.187,0.468 5.9,1.896 8.174,4.153c1.299,1.289 2.281,2.827 3.294,4.329c1.074,1.597 2.233,3.116 3.707,4.361c0.519,0.437 0.936,0.771 1.331,1.016c-1.196,0.133 -3.198,0.161 -4.565,-0.922Zm1.495,-9.639c0,-0.253 0.208,-0.46 0.46,-0.46c0.253,-0 0.46,0.207 0.46,0.46c0,0.257 -0.205,0.459 -0.462,0.459c-0.001,0 -0.003,0 -0.004,0c-0.249,0 -0.454,-0.204 -0.454,-0.453c0,-0.003 0,-0.005 0,-0.008l0,0.002Zm4.649,2.388c-0.297,0.121 -0.595,0.227 -0.882,0.241c-0.43,0.013 -0.851,-0.122 -1.194,-0.381c-0.408,-0.343 -0.699,-0.535 -0.825,-1.136c-0.041,-0.293 -0.032,-0.59 0.025,-0.88c0.105,-0.489 -0.013,-0.802 -0.355,-1.087c-0.283,-0.235 -0.638,-0.296 -1.031,-0.296c-0.134,-0.008 -0.265,-0.049 -0.381,-0.118c-0.163,-0.083 -0.297,-0.287 -0.169,-0.538c0.041,-0.08 0.24,-0.277 0.287,-0.313c0.532,-0.304 1.145,-0.204 1.714,0.024c0.527,0.215 0.923,0.611 1.495,1.168c0.586,0.677 0.691,0.866 1.025,1.369c0.263,0.399 0.503,0.807 0.666,1.272c0.1,0.29 -0.03,0.529 -0.375,0.677l0,-0.002Z" style="fill:#4d6bfe;fill-rule:nonzero;"/></g><path d="M124,4l0,52c0,2.208 -1.792,4 -4,4l-52,0c-2.208,0 -4,-1.792 -4,-4l0,-52c0,-2.208 1.792,-4 4,-4l52,0c2.208,0 4,1.792 4,4Z" style="fill:#fff;"/><path d="M111.085,29.112c0.393,0.877 0.643,1.814 0.745,2.769c0.098,0.956 0.049,1.923 -0.155,2.864c-0.201,0.941 -0.548,1.844 -1.032,2.675c-0.317,0.555 -0.691,1.076 -1.122,1.556c-0.427,0.476 -0.903,0.907 -1.42,1.285c-0.522,0.377 -1.077,0.695 -1.666,0.955c-0.586,0.257 -1.198,0.454 -1.825,0.582c-0.295,0.914 -0.733,1.78 -1.299,2.558c-0.563,0.778 -1.247,1.462 -2.025,2.025c-0.779,0.566 -1.64,1.005 -2.554,1.299c-0.914,0.299 -1.87,0.446 -2.834,0.446c-0.638,0.004 -1.28,-0.064 -1.907,-0.193c-0.624,-0.132 -1.236,-0.332 -1.821,-0.593c-0.586,-0.26 -1.141,-0.585 -1.659,-0.963c-0.514,-0.378 -0.99,-0.812 -1.413,-1.292c-0.944,0.204 -1.911,0.253 -2.867,0.155c-0.956,-0.102 -1.893,-0.351 -2.773,-0.744c-0.877,-0.389 -1.689,-0.918 -2.403,-1.564c-0.714,-0.646 -1.322,-1.402 -1.802,-2.233c-0.321,-0.555 -0.585,-1.141 -0.786,-1.749c-0.2,-0.608 -0.332,-1.236 -0.4,-1.874c-0.068,-0.635 -0.064,-1.277 0.004,-1.915c0.068,-0.635 0.207,-1.262 0.408,-1.87c-0.643,-0.715 -1.171,-1.527 -1.564,-2.403c-0.389,-0.88 -0.643,-1.814 -0.741,-2.769c-0.102,-0.956 -0.049,-1.923 0.151,-2.864c0.201,-0.941 0.548,-1.844 1.032,-2.675c0.317,-0.555 0.691,-1.08 1.118,-1.556c0.427,-0.476 0.907,-0.907 1.424,-1.285c0.518,-0.377 1.077,-0.699 1.662,-0.955c0.59,-0.261 1.202,-0.454 1.829,-0.582c0.295,-0.918 0.733,-1.78 1.296,-2.558c0.566,-0.778 1.25,-1.462 2.028,-2.029c0.779,-0.562 1.64,-1.001 2.554,-1.299c0.914,-0.295 1.87,-0.446 2.834,-0.442c0.638,-0.004 1.28,0.06 1.907,0.193c0.628,0.132 1.24,0.328 1.825,0.589c0.586,0.264 1.141,0.585 1.659,0.963c0.517,0.382 0.993,0.812 1.416,1.292c0.941,-0.2 1.908,-0.249 2.864,-0.151c0.956,0.098 1.889,0.351 2.769,0.741c0.877,0.392 1.689,0.918 2.403,1.564c0.714,0.642 1.322,1.394 1.802,2.229c0.321,0.551 0.585,1.137 0.786,1.749c0.2,0.608 0.336,1.235 0.4,1.874c0.068,0.638 0.068,1.28 -0.004,1.919c-0.068,0.638 -0.207,1.265 -0.408,1.873c0.646,0.715 1.171,1.523 1.564,2.403Zm-12.587,16.128c0.823,-0.34 1.571,-0.843 2.202,-1.474c0.631,-0.63 1.133,-1.378 1.473,-2.206c0.34,-0.823 0.518,-1.707 0.518,-2.599l-0,-8.425c-0.003,-0.007 -0.005,-0.016 -0.008,-0.026c-0.002,-0.008 -0.006,-0.015 -0.011,-0.023c-0.005,-0.007 -0.011,-0.014 -0.019,-0.019c-0.007,-0.007 -0.015,-0.012 -0.022,-0.015l-3.049,-1.76l-0,10.177c-0,0.102 -0.015,0.208 -0.042,0.306c-0.026,0.102 -0.064,0.197 -0.117,0.288c-0.053,0.09 -0.113,0.173 -0.189,0.245c-0.073,0.073 -0.156,0.137 -0.245,0.189l-7.22,4.167c-0.06,0.038 -0.162,0.091 -0.215,0.121c0.298,0.253 0.623,0.476 0.963,0.672c0.344,0.197 0.699,0.363 1.069,0.499c0.371,0.132 0.752,0.234 1.137,0.302c0.39,0.068 0.782,0.102 1.175,0.102c0.892,0 1.776,-0.177 2.6,-0.521Zm-17.193,-5.72c0.449,0.775 1.042,1.447 1.749,1.991c0.71,0.544 1.515,0.941 2.376,1.171c0.861,0.231 1.76,0.291 2.644,0.174c0.884,-0.117 1.734,-0.404 2.509,-0.85l7.299,-4.212l0.019,-0.019c0.005,-0.005 0.008,-0.013 0.011,-0.023c0.005,-0.007 0.009,-0.015 0.011,-0.023l0,-3.551l-8.81,5.097c-0.09,0.053 -0.185,0.09 -0.283,0.121c-0.102,0.026 -0.204,0.037 -0.31,0.037c-0.102,0 -0.204,-0.011 -0.306,-0.037c-0.098,-0.031 -0.196,-0.068 -0.287,-0.121l-7.219,-4.171c-0.065,-0.038 -0.159,-0.095 -0.212,-0.129c-0.068,0.39 -0.102,0.782 -0.102,1.175c0,0.393 0.038,0.786 0.106,1.175c0.068,0.386 0.174,0.767 0.306,1.137c0.136,0.371 0.302,0.726 0.499,1.066l-0,-0.008Zm-1.897,-15.753c-0.446,0.774 -0.733,1.628 -0.85,2.512c-0.117,0.884 -0.057,1.779 0.174,2.644c0.23,0.862 0.627,1.666 1.171,2.377c0.544,0.706 1.22,1.299 1.991,1.745l7.295,4.216c0.007,0.003 0.016,0.005 0.026,0.008l0.027,-0c0.01,-0 0.019,-0.003 0.026,-0.008c0.008,-0.002 0.015,-0.006 0.023,-0.011l3.06,-1.768l-8.81,-5.085c-0.087,-0.053 -0.17,-0.117 -0.246,-0.189c-0.073,-0.074 -0.136,-0.156 -0.188,-0.246c-0.05,-0.09 -0.091,-0.185 -0.118,-0.287c-0.026,-0.098 -0.041,-0.2 -0.037,-0.306l-0,-8.579c-0.371,0.136 -0.729,0.302 -1.069,0.498c-0.34,0.2 -0.662,0.427 -0.964,0.68c-0.298,0.253 -0.578,0.533 -0.831,0.835c-0.253,0.299 -0.476,0.624 -0.672,0.964l-0.008,-0Zm25.059,5.833c0.09,0.052 0.173,0.113 0.249,0.188c0.072,0.072 0.136,0.155 0.189,0.246c0.049,0.091 0.09,0.189 0.117,0.287c0.023,0.102 0.038,0.204 0.034,0.31l-0,8.579c1.213,-0.445 2.27,-1.227 3.052,-2.255c0.786,-1.028 1.258,-2.255 1.368,-3.54c0.11,-1.284 -0.147,-2.576 -0.744,-3.721c-0.597,-1.145 -1.508,-2.097 -2.626,-2.739l-7.295,-4.216c-0.007,-0.003 -0.016,-0.005 -0.026,-0.008l-0.027,0c-0.007,0.003 -0.016,0.005 -0.026,0.008c-0.008,0.002 -0.015,0.006 -0.023,0.011l-3.045,1.761l8.81,5.089l-0.007,-0Zm3.041,-4.572l-0.004,0l-0,0.004l0.004,-0.004Zm-0.004,-0.003c0.219,-1.27 0.072,-2.577 -0.427,-3.767c-0.495,-1.19 -1.322,-2.214 -2.38,-2.954c-1.058,-0.737 -2.304,-1.16 -3.593,-1.217c-1.292,-0.053 -2.569,0.261 -3.687,0.903l-7.295,4.213c-0.008,0.005 -0.014,0.011 -0.019,0.018l-0.015,0.023c-0.002,0.008 -0.005,0.016 -0.008,0.027c-0.002,0.007 -0.003,0.016 -0.003,0.026l-0,3.521l8.81,-5.089c0.09,-0.053 0.189,-0.091 0.287,-0.121c0.102,-0.026 0.204,-0.038 0.306,-0.038c0.106,0 0.208,0.012 0.31,0.038c0.098,0.03 0.192,0.068 0.283,0.121l7.219,4.171c0.065,0.038 0.159,0.091 0.212,0.125Zm-19.09,-3.899c0,-0.102 0.016,-0.204 0.042,-0.306c0.026,-0.098 0.064,-0.197 0.117,-0.287c0.053,-0.087 0.113,-0.17 0.189,-0.246c0.072,-0.072 0.155,-0.136 0.246,-0.185l7.219,-4.167c0.068,-0.042 0.162,-0.094 0.215,-0.121c-0.989,-0.827 -2.198,-1.356 -3.479,-1.519c-1.281,-0.166 -2.58,0.038 -3.748,0.586c-1.171,0.548 -2.161,1.421 -2.852,2.509c-0.691,1.091 -1.058,2.353 -1.058,3.645l0,8.425c0.003,0.01 0.005,0.019 0.008,0.026c0.002,0.008 0.006,0.015 0.011,0.023c0.005,0.007 0.011,0.015 0.019,0.023c0.005,0.005 0.013,0.01 0.023,0.015l3.048,1.76l0,-10.181Zm1.655,11.133l3.925,2.267l3.926,-2.267l-0,-4.529l-3.922,-2.267l-3.925,2.267l-0.004,4.529Z" style="fill-rule:nonzero;"/><path d="M60,4l0,52c0,2.208 -1.792,4 -4,4l-52,0c-2.208,0 -4,-1.792 -4,-4l0,-52c0,-2.208 1.792,-4 4,-4l52,0c2.208,0 4,1.792 4,4Z" style="fill:#fff;"/><clipPath id="_clip2"><rect x="12.048" y="18.122" width="35.903" height="23.756"/></clipPath><g clip-path="url(#_clip2)"><path d="M15.717,28.349c-0,-0 3.246,-4.79 9.727,-5.285l0,-1.738c-7.179,0.577 -13.395,6.657 -13.395,6.657c-0,0 3.521,10.179 13.395,11.111l0,-1.847c-7.246,-0.912 -9.727,-8.898 -9.727,-8.898Zm9.727,5.225l0,1.691c-5.476,-0.976 -6.997,-6.669 -6.997,-6.669c0,-0 2.63,-2.913 6.997,-3.386l0,1.856c-0.003,0 -0.005,-0.001 -0.008,-0.001c-2.292,-0.275 -4.083,1.867 -4.083,1.867c0,-0 1.004,3.604 4.091,4.642m0,-15.452l0,3.204c0.211,-0.016 0.422,-0.029 0.634,-0.037c8.161,-0.275 13.479,6.694 13.479,6.694c0,0 -6.107,7.427 -12.471,7.427c-0.583,0 -1.129,-0.054 -1.642,-0.145l0,1.982c0.454,0.058 0.911,0.088 1.368,0.088c5.921,0 10.204,-3.024 14.35,-6.603c0.688,0.55 3.502,1.89 4.081,2.476c-3.943,3.301 -13.131,5.962 -18.34,5.962c-0.502,-0 -0.985,-0.031 -1.459,-0.076l0,2.784l22.507,0l0,-23.756l-22.507,-0Zm0,7.088l0,-2.146c0.209,-0.014 0.419,-0.026 0.634,-0.033c5.869,-0.184 9.719,5.044 9.719,5.044c0,0 -4.159,5.776 -8.618,5.776c-0.642,-0 -1.217,-0.103 -1.735,-0.277l0,-6.508c2.285,0.276 2.745,1.286 4.119,3.576l3.055,-2.576c-0,-0 -2.23,-2.925 -5.99,-2.925c-0.409,-0 -0.8,0.028 -1.184,0.069" style="fill:#77b900;fill-rule:nonzero;"/></g></svg>