<svg width="248" height="249" viewBox="0 0 248 249" fill="none" xmlns="http://www.w3.org/2000/svg">
<g clip-path="url(#clip0_4641_7091)">
<path d="M123.953 124.54L123.953 15.6035" stroke="#8B8C8E" stroke-opacity="0.65"/>
<path d="M123.952 124.54L149.478 69.7997M169.991 25.8101L149.478 69.7997M167.879 24.3889L149.691 64.1494C149.233 65.1501 149.059 66.2575 149.188 67.3504L149.478 69.7997" stroke="#8B8C8E" stroke-opacity="0.65"/>
<path d="M123.954 124.54L178.422 30.1982" stroke="#8B8C8E" stroke-opacity="0.65"/>
<path d="M123.954 124.547L178.422 30.2046" stroke="#8B8C8E" stroke-opacity="0.65"/>
<path d="M123.953 124.547L173.429 89.9029M213.189 62.0631L173.429 89.9029M212.07 59.7764L176.439 85.1158C175.542 85.7536 174.838 86.6257 174.403 87.6368L173.429 89.9029" stroke="#8B8C8E" stroke-opacity="0.65"/>
<path d="M123.955 124.546L218.297 70.0781" stroke="#8B8C8E" stroke-opacity="0.65"/>
<path d="M123.967 124.541L218.309 70.0723" stroke="#8B8C8E" stroke-opacity="0.65"/>
<path d="M123.967 124.54L184.137 119.276M232.489 115.046L184.137 119.276M232.664 112.506L189.136 116.635C188.041 116.739 186.995 117.142 186.113 117.801L184.137 119.276" stroke="#8B8C8E" stroke-opacity="0.65"/>
<path d="M123.966 124.541H232.902" stroke="#8B8C8E" stroke-opacity="0.65"/>
<path d="M123.962 124.544L232.898 124.544" stroke="#8B8C8E" stroke-opacity="0.65"/>
<path d="M123.962 124.545L178.703 150.071M222.692 170.583L178.703 150.071M224.113 168.471L184.353 150.283C183.352 149.825 182.245 149.651 181.152 149.781L178.703 150.071" stroke="#8B8C8E" stroke-opacity="0.65"/>
<path d="M123.963 124.544L218.305 179.013" stroke="#8B8C8E" stroke-opacity="0.65"/>
<path d="M123.939 124.55L218.281 179.019" stroke="#8B8C8E" stroke-opacity="0.65"/>
<path d="M123.941 124.55L158.584 174.027M186.424 213.786L158.584 174.027M188.711 212.667L163.372 177.036C162.734 176.139 161.862 175.435 160.85 175L158.584 174.027" stroke="#8B8C8E" stroke-opacity="0.65"/>
<path d="M123.938 124.55L178.406 218.892" stroke="#8B8C8E" stroke-opacity="0.65"/>
<path d="M123.934 124.546L178.402 218.888" stroke="#8B8C8E" stroke-opacity="0.65"/>
<path d="M123.935 124.546L129.199 184.716M133.429 233.068L129.199 184.716M135.969 233.243L131.84 189.715C131.736 188.62 131.333 187.574 130.674 186.692L129.199 184.716" stroke="#8B8C8E" stroke-opacity="0.65"/>
<path d="M123.934 124.546L123.934 233.483" stroke="#8B8C8E" stroke-opacity="0.65"/>
<path d="M123.934 124.561L123.934 233.498" stroke="#8B8C8E" stroke-opacity="0.65"/>
<path d="M123.934 124.562L98.4085 179.302M77.8958 223.292L98.4085 179.302M80.0078 224.713L98.1961 184.952C98.6539 183.952 98.8276 182.844 98.6983 181.751L98.4085 179.302" stroke="#8B8C8E" stroke-opacity="0.65"/>
<path d="M123.933 124.561L69.4648 218.903" stroke="#8B8C8E" stroke-opacity="0.65"/>
<path d="M123.933 124.555L69.4648 218.897" stroke="#8B8C8E" stroke-opacity="0.65"/>
<path d="M123.934 124.555L74.4572 159.199M34.6979 187.038L74.4572 159.199M35.8164 189.325L71.4481 163.986C72.345 163.348 73.0491 162.476 73.4836 161.465L74.4572 159.199" stroke="#8B8C8E" stroke-opacity="0.65"/>
<path d="M123.932 124.555L29.5898 179.023" stroke="#8B8C8E" stroke-opacity="0.65"/>
<path d="M123.928 124.545L29.5859 179.013" stroke="#8B8C8E" stroke-opacity="0.65"/>
<path d="M123.927 124.545L63.7577 129.809M15.4052 134.039L63.7577 129.809M15.2305 136.579L58.7582 132.45C59.8537 132.346 60.8996 131.943 61.7814 131.285L63.7577 129.809" stroke="#8B8C8E" stroke-opacity="0.65"/>
<path d="M123.929 124.545H14.9922" stroke="#8B8C8E" stroke-opacity="0.65"/>
<path d="M123.933 124.542L14.9961 124.542" stroke="#8B8C8E" stroke-opacity="0.65"/>
<path d="M123.933 124.542L69.192 99.0159M25.2024 78.5032L69.192 99.0159M23.7812 80.6152L63.5417 98.8035C64.5424 99.2613 65.6498 99.4351 66.7427 99.3057L69.192 99.0159" stroke="#8B8C8E" stroke-opacity="0.65"/>
<path d="M123.932 124.542L29.5898 70.0737" stroke="#8B8C8E" stroke-opacity="0.65"/>
<path d="M123.92 124.535L29.5781 70.0669" stroke="#8B8C8E" stroke-opacity="0.65"/>
<path d="M123.919 124.535L89.275 75.0588M61.4352 35.2995L89.275 75.0588M59.1484 36.418L84.4878 72.0497C85.1256 72.9465 85.9978 73.6507 87.0089 74.0851L89.275 75.0588" stroke="#8B8C8E" stroke-opacity="0.65"/>
<path d="M123.921 124.535L69.4531 30.1934" stroke="#8B8C8E" stroke-opacity="0.65"/>
<path d="M123.925 124.538L69.457 30.1963" stroke="#8B8C8E" stroke-opacity="0.65"/>
<path d="M123.925 124.538L118.661 64.3685M114.43 16.016L118.661 64.3685M111.891 15.8413L116.019 59.369C116.123 60.4646 116.526 61.5105 117.185 62.3923L118.661 64.3685" stroke="#8B8C8E" stroke-opacity="0.65"/>
<path d="M123.926 124.538V15.6016" stroke="#8B8C8E" stroke-opacity="0.65"/>
<circle cx="123.931" cy="124.54" r="41.2905" fill="black"/>
<circle cx="123.931" cy="124.54" r="40.7905" stroke="#8B8C8E" stroke-opacity="0.65"/>
<circle cx="123.934" cy="124.54" r="123.372" stroke="#8B8C8E" stroke-opacity="0.65"/>
<circle cx="123.935" cy="124.54" r="111.951" stroke="#8B8C8E" stroke-opacity="0.65"/>
<circle cx="123.932" cy="124.54" r="109.315" stroke="#8B8C8E" stroke-opacity="0.65"/>
</g>
<defs>
<clipPath id="clip0_4641_7091">
<rect width="248" height="249" fill="white"/>
</clipPath>
</defs>
</svg>
