<?xml version="1.0" encoding="UTF-8" standalone="no"?><!DOCTYPE svg PUBLIC "-//W3C//DTD SVG 1.1//EN" "http://www.w3.org/Graphics/SVG/1.1/DTD/svg11.dtd"><svg width="100%" height="100%" viewBox="0 0 373 334" version="1.1" xmlns="http://www.w3.org/2000/svg" xmlns:xlink="http://www.w3.org/1999/xlink" xml:space="preserve" xmlns:serif="http://www.serif.com/" style="fill-rule:evenodd;clip-rule:evenodd;"><g><clipPath id="_clip1"><rect x="-10" y="0" width="383" height="334"/></clipPath><g clip-path="url(#_clip1)"><path d="M373,167l-21.5,0c-76.271,0 -150.484,-24.738 -211.5,-70.5c-61.016,-45.762 -135.229,-70.5 -211.5,-70.5l-37.5,0" style="fill:none;fill-rule:nonzero;stroke:#8b8c8e;stroke-width:1px;"/><path d="M373,167l-136.659,0c-73.011,0 -145.141,-15.956 -211.341,-46.75l-37.484,-17.437c-41.509,-19.309 -86.736,-29.313 -132.516,-29.313" style="fill:none;fill-rule:nonzero;stroke:#8b8c8e;stroke-width:1px;"/><path d="M373,167l-110.617,0c-63.473,0 -122.884,31.223 -158.883,83.5c-35.999,52.277 -95.41,83.5 -158.883,83.5l-53.617,0" style="fill:none;fill-rule:nonzero;stroke:#8b8c8e;stroke-width:1px;"/><path d="M373,167c-31.097,0 -61.958,5.399 -91.208,15.957l-8.019,2.894c-121.649,43.909 -257.773,9.612 -344.094,-86.696l-38.679,-43.155" style="fill:none;fill-rule:nonzero;stroke:#8b8c8e;stroke-width:1px;"/><path d="M373,167l-50.17,0c-33.096,0 -65.404,10.103 -92.604,28.959c-85.04,58.953 -202.786,24.491 -242.62,-71.01l-81.106,-194.449" style="fill:none;fill-rule:nonzero;stroke:#8b8c8e;stroke-width:1px;"/><rect x="177" y="203" width="4" height="4" style="fill:#d9d9d9;"/><rect x="36" y="308" width="4" height="4" style="fill:#d9d9d9;"/><rect x="68" y="138" width="4" height="4" style="fill:#d9d9d9;"/><rect x="254" y="166" width="4" height="4" style="fill:#d9d9d9;"/><rect x="149" y="103" width="4" height="4" style="fill:#d9d9d9;"/><rect x="245" y="149" width="4" height="4" style="fill:#d9d9d9;"/></g></g></svg>