<svg width="729" height="374" xmlns="http://www.w3.org/2000/svg" fill="none">
 <mask height="39" width="32" y="325" x="47" maskUnits="userSpaceOnUse" id="mask0_4641_6919">
  <path id="svg_1" fill="#D9D9D9" d="m78.75,363.684l-31.1875,0l0,-37.777l31.1875,0l0,37.777z"/>
 </mask>
 <mask height="39" width="211" y="326" x="86" maskUnits="userSpaceOnUse" id="mask1_4641_6919">
  <path id="svg_2" fill="#D9D9D9" d="m296.186,364.123l-209.9672,0l0,-37.776l209.9672,0l0,37.776z"/>
 </mask>
 <mask height="20" width="20" y="28" x="54" maskUnits="userSpaceOnUse" id="mask2_4641_6919">
  <rect id="svg_3" fill="#D9D9D9" height="20" width="20" y="28" x="54"/>
 </mask>
 <defs>
  <clipPath id="clip0_4641_6919">
   <rect id="svg_4" x="-44.6836" y="305.26199" fill="white" height="97.5624" width="376.741"/>
  </clipPath>
  <clipPath id="clip1_4641_6919">
   <rect id="svg_5" x="20.3281" y="305.26199" fill="white" height="97.5624" width="376.741"/>
  </clipPath>
 </defs>
 <g>
  <title>Layer 1</title>
  <path id="svg_6" stroke-opacity="0.65" stroke="#8B8C8E" d="m73.8792,372.908l-21.3167,0c-2.7614,0 -5,-2.238 -5,-5l0,-44.468c0,-2.762 2.2386,-5 5,-5l266.8895,0c2.761,0 5,2.238 5,5l0,24.519c0,2.762 2.239,5 5,5l6.984,0c2.029,0 3.674,1.646 3.674,3.675l0,2.109c0,0.865 -0.701,1.566 -1.566,1.566c-0.864,0 -1.565,0.701 -1.565,1.566l0,0.534c0,1.16 -0.94,2.1 -2.1,2.1l-26.522,0c-2.761,0 -5,-2.239 -5,-5l0,-5.365c0,-1.814 -1.47,-3.285 -3.284,-3.285c-1.814,0 -3.284,1.471 -3.284,3.285l0,13.764c0,2.762 -2.239,5 -5,5l-201.1245,0c-2.7614,0 -5,-2.238 -5,-5l0,-13.656c0,-1.874 -1.5189,-3.393 -3.3926,-3.393c-1.8737,0 -3.3927,1.519 -3.3927,3.393l0,13.656c0,2.762 -2.2386,5 -5,5z"/>
  <path id="svg_7" stroke="#3A3939" d="m377.887,323.711l78.188,0"/>
  <g id="svg_8" mask="url(#mask0_4641_6919)">
   <g id="svg_9" clip-path="url(#clip0_4641_6919)">
    <line id="svg_10" stroke-width="0.66966" stroke-opacity="0.9" stroke="#696761" y2="402.588" x2="53.1155" y1="305.025" x1="-44.4468"/>
    <line id="svg_11" stroke-width="0.66966" stroke-opacity="0.9" stroke="#696761" y2="402.588" x2="62.1194" y1="305.025" x1="-35.4429"/>
    <line id="svg_12" stroke-width="0.66966" stroke-opacity="0.9" stroke="#696761" y2="402.588" x2="71.1273" y1="305.025" x1="-26.4351"/>
    <line id="svg_13" stroke-width="0.66966" stroke-opacity="0.9" stroke="#696761" y2="402.588" x2="80.1312" y1="305.025" x1="-17.4312"/>
    <line id="svg_14" stroke-width="0.66966" stroke-opacity="0.9" stroke="#696761" y2="402.588" x2="89.139" y1="305.025" x1="-8.4234"/>
    <line id="svg_15" stroke-width="0.66966" stroke-opacity="0.9" stroke="#696761" y2="402.588" x2="98.1429" y1="305.025" x1="0.58051"/>
    <line id="svg_16" stroke-width="0.66966" stroke-opacity="0.9" stroke="#696761" y2="402.588" x2="107.151" y1="305.025" x1="9.58832"/>
    <line id="svg_17" stroke-width="0.66966" stroke-opacity="0.9" stroke="#696761" y2="402.588" x2="116.155" y1="305.025" x1="18.5922"/>
    <line id="svg_18" stroke-width="0.66966" stroke-opacity="0.9" stroke="#696761" y2="402.588" x2="125.162" y1="305.025" x1="27.6"/>
    <line id="svg_19" stroke-width="0.66966" stroke-opacity="0.9" stroke="#696761" y2="402.588" x2="134.166" y1="305.025" x1="36.6039"/>
    <line id="svg_20" stroke-width="0.66966" stroke-opacity="0.9" stroke="#696761" y2="402.588" x2="143.174" y1="305.025" x1="45.6118"/>
    <line id="svg_21" stroke-width="0.66966" stroke-opacity="0.9" stroke="#696761" y2="402.588" x2="152.178" y1="305.025" x1="54.6157"/>
    <line id="svg_22" stroke-width="0.66966" stroke-opacity="0.9" stroke="#696761" y2="402.588" x2="161.186" y1="305.025" x1="63.6235"/>
    <line id="svg_23" stroke-width="0.66966" stroke-opacity="0.9" stroke="#696761" y2="402.588" x2="170.19" y1="305.025" x1="72.6274"/>
   </g>
  </g>
  <g id="svg_24" mask="url(#mask1_4641_6919)">
   <g id="svg_25" clip-path="url(#clip1_4641_6919)">
    <line id="svg_26" stroke-width="0.66966" stroke-opacity="0.9" stroke="#696761" y2="402.588" x2="118.127" y1="305.025" x1="20.5649"/>
    <line id="svg_27" stroke-width="0.66966" stroke-opacity="0.9" stroke="#696761" y2="402.588" x2="127.131" y1="305.025" x1="29.5688"/>
    <line id="svg_28" stroke-width="0.66966" stroke-opacity="0.9" stroke="#696761" y2="402.588" x2="136.139" y1="305.025" x1="38.5766"/>
    <line id="svg_29" stroke-width="0.66966" stroke-opacity="0.9" stroke="#696761" y2="402.588" x2="145.143" y1="305.025" x1="47.5805"/>
    <line id="svg_30" stroke-width="0.66966" stroke-opacity="0.9" stroke="#696761" y2="402.588" x2="154.151" y1="305.025" x1="56.5883"/>
    <line id="svg_31" stroke-width="0.66966" stroke-opacity="0.9" stroke="#696761" y2="402.588" x2="163.155" y1="305.025" x1="65.5922"/>
    <line id="svg_32" stroke-width="0.66966" stroke-opacity="0.9" stroke="#696761" y2="402.588" x2="172.162" y1="305.025" x1="74.6"/>
    <line id="svg_33" stroke-width="0.66966" stroke-opacity="0.9" stroke="#696761" y2="402.588" x2="181.166" y1="305.025" x1="83.6039"/>
    <line id="svg_34" stroke-width="0.66966" stroke-opacity="0.9" stroke="#696761" y2="402.588" x2="190.174" y1="305.025" x1="92.6118"/>
    <line id="svg_35" stroke-width="0.66966" stroke-opacity="0.9" stroke="#696761" y2="402.588" x2="199.178" y1="305.025" x1="101.616"/>
    <line id="svg_36" stroke-width="0.66966" stroke-opacity="0.9" stroke="#696761" y2="402.588" x2="208.186" y1="305.025" x1="110.623"/>
    <line id="svg_37" stroke-width="0.66966" stroke-opacity="0.9" stroke="#696761" y2="402.588" x2="217.19" y1="305.025" x1="119.627"/>
    <line id="svg_38" stroke-width="0.66966" stroke-opacity="0.9" stroke="#696761" y2="402.588" x2="226.198" y1="305.025" x1="128.635"/>
    <line id="svg_39" stroke-width="0.66966" stroke-opacity="0.9" stroke="#696761" y2="402.588" x2="235.201" y1="305.025" x1="137.639"/>
    <line id="svg_40" stroke-width="0.66966" stroke-opacity="0.9" stroke="#696761" y2="402.588" x2="244.209" y1="305.025" x1="146.647"/>
    <line id="svg_41" stroke-width="0.66966" stroke-opacity="0.9" stroke="#696761" y2="402.588" x2="253.213" y1="305.025" x1="155.651"/>
    <line id="svg_42" stroke-width="0.66966" stroke-opacity="0.9" stroke="#696761" y2="402.588" x2="262.221" y1="305.025" x1="164.659"/>
    <line id="svg_43" stroke-width="0.66966" stroke-opacity="0.9" stroke="#696761" y2="402.588" x2="271.225" y1="305.025" x1="173.663"/>
    <line id="svg_44" stroke-width="0.66966" stroke-opacity="0.9" stroke="#696761" y2="402.588" x2="280.233" y1="305.025" x1="182.67"/>
    <line id="svg_45" stroke-width="0.66966" stroke-opacity="0.9" stroke="#696761" y2="402.588" x2="289.237" y1="305.025" x1="191.674"/>
    <line id="svg_46" stroke-width="0.66966" stroke-opacity="0.9" stroke="#696761" y2="402.588" x2="298.241" y1="305.025" x1="200.678"/>
    <line id="svg_47" stroke-width="0.66966" stroke-opacity="0.9" stroke="#696761" y2="402.588" x2="307.248" y1="305.025" x1="209.686"/>
    <line id="svg_48" stroke-width="0.66966" stroke-opacity="0.9" stroke="#696761" y2="402.588" x2="316.252" y1="305.025" x1="218.69"/>
    <line id="svg_49" stroke-width="0.66966" stroke-opacity="0.9" stroke="#696761" y2="402.588" x2="325.26" y1="305.025" x1="227.698"/>
    <line id="svg_50" stroke-width="0.66966" stroke-opacity="0.9" stroke="#696761" y2="402.588" x2="334.264" y1="305.025" x1="236.702"/>
    <line id="svg_51" stroke-width="0.66966" stroke-opacity="0.9" stroke="#696761" y2="402.588" x2="343.272" y1="305.025" x1="245.709"/>
    <line id="svg_52" stroke-width="0.66966" stroke-opacity="0.9" stroke="#696761" y2="402.588" x2="352.276" y1="305.025" x1="254.713"/>
    <line id="svg_53" stroke-width="0.66966" stroke-opacity="0.9" stroke="#696761" y2="402.588" x2="361.284" y1="305.025" x1="263.721"/>
    <line id="svg_54" stroke-width="0.66966" stroke-opacity="0.9" stroke="#696761" y2="402.588" x2="370.287" y1="305.025" x1="272.725"/>
    <line id="svg_55" stroke-width="0.66966" stroke-opacity="0.9" stroke="#696761" y2="402.588" x2="379.295" y1="305.025" x1="281.733"/>
    <line id="svg_56" stroke-width="0.66966" stroke-opacity="0.9" stroke="#696761" y2="402.588" x2="388.299" y1="305.025" x1="290.737"/>
   </g>
  </g>
  <path id="svg_57" stroke-opacity="0.65" stroke="#8B8C8E" fill="black" d="m721.538,44.3411l-714.538,0c-3.31371,0 -6,2.6863 -6,6l0,273.5199c0,3.313 2.68629,6 6,6l368.313,0c1.615,0 3.13,-0.78 4.069,-2.094l5.712,-7.998c0.99,-1.385 2.587,-2.208 4.29,-2.208l54.314,0c1.702,0 3.3,0.823 4.289,2.208l5.713,7.998c0.939,1.314 2.454,2.094 4.069,2.094l263.769,0c3.313,0 6,-2.687 6,-6l0,-273.5199c0,-3.3137 -2.687,-6 -6,-6z"/>
  <path id="svg_58" stroke="#3A3939" fill="black" d="m17.5446,54.0049l411.4474,0c3.314,0 6,2.6863 6,6l0,241.8931c0,3.313 -2.686,6 -6,6l-44.941,0c-1.938,0 -3.756,0.936 -4.883,2.512l-5.195,7.274c-1.127,1.577 -2.881,2.513 -4.819,2.513l-351.6662,0c-3.3137,0 -5.9432,-2.686 -5.9432,-6l0,-254.1921c0,-3.3137 2.6863,-6 6,-6z"/>
  <path id="svg_59" stroke="#3A3939" fill="black" d="m711.873,54.0049l-260.342,0c-3.313,0 -6,2.6863 -6,6l0,244.1231c0,2.082 1.688,3.77 3.77,3.77c1.218,0 2.361,0.588 3.068,1.579l5.863,8.207c1.126,1.577 2.949,2.513 4.886,2.513l248.75,0c3.314,0 6.005,-2.686 6.005,-6l0,-254.1921c0,-3.3137 -2.686,-6 -6,-6z"/>
  <rect id="svg_60" stroke-dasharray="2 2" stroke="#8B8C8E" fill="black" rx="9.5" height="75" width="75" y="0.5" x="26.5"/>
  <rect id="svg_61" fill="#00ffaa" rx="6" height="54" width="54" y="11" x="37"/>
  <g id="svg_62" mask="url(#mask2_4641_6919)">
   <path id="svg_63" fill="#000" d="m59.4942,46c-0.4128,0 -0.765,-0.1469 -1.0567,-0.4406c-0.2917,-0.2938 -0.4375,-0.6469 -0.4375,-1.0594l0,-8c0,-0.4125 0.1469,-0.7656 0.4406,-1.0594c0.2938,-0.2937 0.6469,-0.4406 1.0594,-0.4406l0.5,0l0,-2c0,-1.1067 0.3905,-2.05 1.1715,-2.83c0.7808,-0.78 1.7252,-1.17 2.8333,-1.17c1.1079,0 2.0508,0.39 2.8285,1.17c0.7778,0.78 1.1667,1.7233 1.1667,2.83l0,2l0.5,0c0.4125,0 0.7656,0.1469 1.0594,0.4406c0.2937,0.2938 0.4406,0.6469 0.4406,1.0594l0,8c0,0.4125 -0.1469,0.7656 -0.4408,1.0594c-0.2939,0.2937 -0.6473,0.4406 -1.06,0.4406l-9.005,0zm0.0058,-1.5l9,0l0,-8l-9,0l0,8zm4.5044,-2.5c0.4137,0 0.7664,-0.1473 1.0581,-0.4419c0.2917,-0.2946 0.4375,-0.6487 0.4375,-1.0625c0,-0.4137 -0.1473,-0.7664 -0.4419,-1.0581c-0.2946,-0.2917 -0.6487,-0.4375 -1.0625,-0.4375c-0.4137,0 -0.7664,0.1473 -1.0581,0.4419c-0.2917,0.2946 -0.4375,0.6487 -0.4375,1.0625c0,0.4137 0.1473,0.7664 0.4419,1.0581c0.2946,0.2917 0.6487,0.4375 1.0625,0.4375zm-2.5044,-7l5,0l0,-2c0,-0.6944 -0.2431,-1.2847 -0.7292,-1.7708c-0.4861,-0.4861 -1.0764,-0.7292 -1.7708,-0.7292c-0.6944,0 -1.2847,0.2431 -1.7708,0.7292c-0.4861,0.4861 -0.7292,1.0764 -0.7292,1.7708l0,2z"/>
  </g>
 </g>
</svg>