<svg width="18" height="18" viewBox="0 0 18 18" fill="none" xmlns="http://www.w3.org/2000/svg">
<path d="M11.7 9.28145C11.8 9.21448 11.85 9.11961 11.85 8.99684C11.85 8.87408 11.8 8.78145 11.7 8.71895L7.72495 6.1877C7.61245 6.1127 7.49683 6.10801 7.37808 6.17363C7.25933 6.23926 7.19995 6.3377 7.19995 6.46895V11.5255C7.19995 11.667 7.25933 11.7689 7.37808 11.8314C7.49683 11.8939 7.61245 11.8877 7.72495 11.8127L11.7 9.28145ZM4.04995 15.3002C3.6787 15.3002 3.36089 15.168 3.09651 14.9036C2.83214 14.6393 2.69995 14.3214 2.69995 13.9502V4.0502C2.69995 3.67895 2.83214 3.36113 3.09651 3.09676C3.36089 2.83238 3.6787 2.7002 4.04995 2.7002H13.95C14.3212 2.7002 14.639 2.83238 14.9034 3.09676C15.1678 3.36113 15.3 3.67895 15.3 4.0502V13.9502C15.3 14.3214 15.1678 14.6393 14.9034 14.9036C14.639 15.168 14.3212 15.3002 13.95 15.3002H4.04995ZM4.04995 13.9502H13.95V4.0502H4.04995V13.9502Z" fill="#8B8C8E"/>
</svg>
