<?xml version="1.0" encoding="UTF-8" standalone="no"?><!DOCTYPE svg PUBLIC "-//W3C//DTD SVG 1.1//EN" "http://www.w3.org/Graphics/SVG/1.1/DTD/svg11.dtd"><svg width="100%" height="100%" viewBox="0 0 25 25" version="1.1" xmlns="http://www.w3.org/2000/svg" xmlns:xlink="http://www.w3.org/1999/xlink" xml:space="preserve" xmlns:serif="http://www.serif.com/" style="fill-rule:evenodd;clip-rule:evenodd;stroke-linejoin:round;stroke-miterlimit:2;"><circle cx="12.5" cy="12.5" r="12.393" style="fill:#fff;fill-opacity:0.8;"/><g><circle cx="7.763" cy="17.777" r="0.989" style="fill:#0a0;"/><path d="M10.804,15.895l0.294,0.591l-2.36,1.173l-0.294,-0.59l2.36,-1.174Z" style="fill:#0a0;"/><path d="M11.109,13.769l0.639,0.162l-0.65,2.555l-0.639,-0.163l0.65,-2.554Z" style="fill:#0a0;"/><rect x="11.109" y="13.769" width="9.985" height="0.659" style="fill:#0a0;"/><path d="M7.141,6.234l0.638,0.164l-0.729,2.823l-0.638,-0.165l0.729,-2.822Z" style="fill:#0a0;"/><rect x="7.141" y="6.234" width="2.915" height="0.659" style="fill:#0a0;"/><path d="M10.756,7.417l-0.567,0.336l-0.701,-1.184l0.568,-0.335l0.7,1.183Z" style="fill:#0a0;"/><rect x="10.189" y="7.143" width="6.884" height="0.56" style="fill:#0a0;"/><path d="M4.894,16.229l0.989,1.977l-1.977,0l0.988,-1.977Z" style="fill:#05f;"/><path d="M7.255,15.057l0.176,0.354l-2.361,1.173l-0.176,-0.354l2.361,-1.173Z" style="fill:#05f;"/><path d="M7.697,12.759l0.383,0.097l-0.649,2.555l-0.384,-0.098l0.65,-2.554Z" style="fill:#05f;"/><rect x="7.697" y="12.759" width="6.183" height="0.395" style="fill:#05f;"/><g><path d="M5.685,9.012l0.383,0.098l-1.001,3.935l-0.383,-0.097l1.001,-3.936Z" style="fill:#05f;"/><rect x="5.685" y="9.012" width="2.563" height="0.395" style="fill:#05f;"/><rect x="8.295" y="9.511" width="5.585" height="0.395" style="fill:#05f;"/><path d="M8.64,9.714l-0.345,0.193l-0.392,-0.702l0.345,-0.193l0.392,0.702Z" style="fill:#05f;"/></g><g><path d="M14.348,9.979l-0.988,-1.977l1.977,-0l-0.989,1.977Z" style="fill:#f70;"/><path d="M15.161,9.943l-0.177,0.353l-0.636,-0.317l0.177,-0.354l0.636,0.318Z" style="fill:#f70;"/><rect x="14.984" y="9.901" width="3.791" height="0.395" style="fill:#f70;"/><path d="M19.537,11.04l-0.329,0.22l-0.762,-1.139l0.329,-0.22l0.762,1.139Z" style="fill:#f70;"/><rect x="14.984" y="9.901" width="3.791" height="0.395" style="fill:#f70;"/><path d="M19.537,11.04l-0.329,0.22l-0.762,-1.139l0.329,-0.22l0.762,1.139Z" style="fill:#f70;"/></g><g><path d="M14.945,13.326l-0.384,0.093l-0.425,-1.762l0.384,-0.093l0.425,1.762Z" style="fill:#f70;"/><rect x="14.561" y="13.024" width="4.976" height="0.395" style="fill:#f70;"/></g></g></svg>