<?xml version="1.0" encoding="UTF-8" standalone="no"?><!DOCTYPE svg PUBLIC "-//W3C//DTD SVG 1.1//EN" "http://www.w3.org/Graphics/SVG/1.1/DTD/svg11.dtd"><svg width="100%" height="100%" viewBox="0 0 25 25" version="1.1" xmlns="http://www.w3.org/2000/svg" xmlns:xlink="http://www.w3.org/1999/xlink" xml:space="preserve" xmlns:serif="http://www.serif.com/" style="fill-rule:evenodd;clip-rule:evenodd;stroke-linejoin:round;stroke-miterlimit:2;"><circle cx="12.5" cy="12.5" r="12.393" style="fill:#fff;fill-opacity:0.8;"/><path d="M8.496,9.499c0.017,-0.001 0.035,-0.001 0.053,-0.001l0.299,0c0.085,0 0.17,0 0.256,0.001c0.109,0 0.219,0 0.328,-0.001l0.374,0c0.056,0 0.113,0 0.169,0.001c0.025,-0.001 0.025,-0.001 0.05,-0.001c0.097,0.001 0.154,0.012 0.231,0.077c0.088,0.093 0.076,0.193 0.074,0.313l0,0.062c0,0.064 -0.001,0.128 -0.002,0.193c-0.001,0.044 -0.001,0.087 -0.001,0.131c-0.001,0.107 -0.002,0.214 -0.003,0.322c0.018,-0.001 0.036,-0.001 0.054,-0.001c0.171,-0.001 0.342,-0.002 0.512,-0.003c0.088,0 0.176,-0.001 0.263,-0.002c0.085,0 0.17,-0.001 0.254,-0.001c0.033,0 0.065,0 0.097,-0.001l0.136,0c0.013,0 0.027,-0.001 0.04,-0.001c0.089,0.001 0.137,0.019 0.208,0.077c0.088,0.092 0.077,0.192 0.075,0.312c-0.001,0.021 -0.001,0.041 -0.001,0.062c0,0.064 -0.001,0.129 -0.002,0.193c0,0.044 -0.001,0.088 -0.001,0.131c-0.001,0.108 -0.002,0.215 -0.003,0.322c0.018,0 0.036,0 0.055,-0.001c0.17,-0.001 0.341,-0.002 0.512,-0.003c0.087,0 0.175,-0.001 0.263,-0.001c0.084,-0.001 0.169,-0.001 0.254,-0.002l0.097,0c0.045,-0.001 0.09,-0.001 0.135,-0.001c0.014,0 0.027,0 0.041,-0.001c0.088,0.001 0.138,0.017 0.207,0.077c0.063,0.075 0.077,0.126 0.076,0.223l0,0.035c0,0.038 -0.001,0.076 -0.001,0.114l0,0.08c-0.001,0.069 -0.001,0.139 -0.002,0.209c-0.001,0.071 -0.001,0.142 -0.001,0.213c-0.001,0.139 -0.002,0.279 -0.004,0.418c0.169,-0.001 0.338,-0.002 0.506,-0.003c0.079,-0.001 0.157,-0.001 0.235,-0.001c0.076,-0.001 0.151,-0.001 0.227,-0.002c0.029,0 0.058,-0.001 0.086,-0.001c0.041,0 0.081,0 0.122,-0.001c0.012,0 0.023,0.001 0.036,0.001c0.091,-0.002 0.141,-0.03 0.217,-0.078c0.044,-0.009 0.044,-0.009 0.085,-0.008c0.013,-0.001 0.026,-0.001 0.04,-0.001c0.045,0.009 0.045,0.009 0.094,0.043c0.088,0.051 0.181,0.043 0.28,0.042c0.032,0.001 0.032,0.001 0.064,0.001c0.059,0 0.118,0 0.176,-0.001c0.064,0 0.127,0 0.19,0.001c0.11,0 0.22,0 0.33,-0.001l0.476,0c0.257,0.001 0.515,0.001 0.773,0.001l0.375,0c0.125,0 0.25,-0.001 0.375,-0.001l0.046,0c0.257,0 0.514,0.001 0.771,0.001l0.988,0c0.068,-0.001 0.136,-0.001 0.203,0c0.03,-0.001 0.03,-0.001 0.06,-0.001c0.106,0.001 0.17,0.006 0.251,0.077c0.061,0.065 0.073,0.117 0.076,0.204c-0.003,0.087 -0.015,0.139 -0.076,0.204c-0.093,0.082 -0.176,0.077 -0.296,0.072l-0.052,0c-0.043,-0.001 -0.086,-0.002 -0.128,-0.004l0,0.04c0.001,0.317 0.002,0.635 0.003,0.953c0,0.153 0.001,0.307 0.002,0.46c0,0.134 0.001,0.268 0.001,0.402c0,0.071 0,0.142 0.001,0.213l0,0.2c0,0.024 0,0.049 0.001,0.073l0,0.157c-0.013,0.084 -0.058,0.137 -0.117,0.195c-0.097,0.044 -0.192,0.035 -0.297,0.032c-0.022,0 -0.043,-0.001 -0.065,-0.001c-0.053,-0.001 -0.106,-0.002 -0.159,-0.003c0.009,0.018 0.017,0.037 0.026,0.056c0.033,0.074 0.04,0.138 0.014,0.217c-0.037,0.083 -0.077,0.126 -0.159,0.169c-0.133,0.045 -0.268,0.003 -0.4,-0.029c-0.029,-0.007 -0.029,-0.007 -0.059,-0.014c-0.145,-0.034 -0.285,-0.075 -0.425,-0.127c0.001,0.011 0.001,0.021 0.001,0.033c0.002,0.049 0.003,0.098 0.004,0.148c0,0.017 0.001,0.033 0.001,0.051c0.002,0.101 -0.002,0.166 -0.074,0.244c-0.091,0.078 -0.166,0.078 -0.28,0.077l-0.608,0c-0.11,-0.001 -0.219,0 -0.329,0l-0.593,0c-0.096,-0.001 -0.156,-0.01 -0.23,-0.077c-0.063,-0.075 -0.077,-0.126 -0.076,-0.223l0,-0.035c0,-0.038 0.001,-0.076 0.001,-0.114l0,-0.08c0.001,-0.07 0.001,-0.139 0.002,-0.209c0.001,-0.071 0.001,-0.142 0.001,-0.213c0.001,-0.14 0.002,-0.279 0.004,-0.418l-0.055,0c-0.171,0.002 -0.341,0.003 -0.512,0.003c-0.088,0.001 -0.175,0.001 -0.263,0.002c-0.085,0.001 -0.169,0.001 -0.254,0.001c-0.032,0 -0.065,0.001 -0.097,0.001l-0.136,0c-0.013,0.001 -0.026,0.001 -0.04,0.001c-0.088,-0.001 -0.137,-0.019 -0.208,-0.076c-0.088,-0.093 -0.076,-0.192 -0.074,-0.313l0,-0.061c0,-0.065 0.001,-0.129 0.002,-0.194c0.001,-0.044 0.001,-0.087 0.001,-0.131c0.001,-0.107 0.002,-0.214 0.003,-0.322c-0.018,0.001 -0.036,0.001 -0.054,0.001c-0.171,0.001 -0.342,0.002 -0.512,0.003c-0.088,0 -0.176,0.001 -0.263,0.002c-0.085,0 -0.17,0.001 -0.254,0.001c-0.033,0 -0.065,0 -0.097,0.001l-0.136,0c-0.013,0 -0.027,0.001 -0.04,0.001c-0.088,-0.001 -0.139,-0.017 -0.208,-0.077c-0.086,-0.095 -0.077,-0.189 -0.075,-0.312c0.001,-0.021 0.001,-0.041 0.001,-0.062c0,-0.064 0.001,-0.129 0.002,-0.193c0,-0.044 0.001,-0.088 0.001,-0.131c0.001,-0.108 0.002,-0.215 0.003,-0.322l-0.054,0c-0.795,0.001 -1.589,0.002 -2.383,0.003l-0.036,0c-0.262,0 -0.523,0.001 -0.784,0.001l-0.423,0c-0.413,0 -0.826,0.001 -1.24,0.001c-0.424,0.001 -0.849,0.001 -1.274,0.002l-0.785,0c-0.191,0.001 -0.382,0.001 -0.573,0.001l-0.311,0c-0.095,0.001 -0.189,0.001 -0.284,0c-0.035,0 -0.069,0.001 -0.103,0.001l-0.181,0c-0.088,-0.001 -0.138,-0.021 -0.207,-0.077c-0.061,-0.065 -0.073,-0.117 -0.076,-0.204c0.003,-0.087 0.015,-0.139 0.076,-0.204c0.093,-0.081 0.176,-0.076 0.296,-0.072c0.017,0 0.034,0 0.052,0.001c0.043,0.001 0.086,0.002 0.128,0.003l0,-0.031c-0.001,-0.249 -0.002,-0.499 -0.003,-0.748c0,-0.121 -0.001,-0.242 -0.002,-0.362c0,-0.117 -0.001,-0.233 -0.001,-0.35c0,-0.044 0,-0.089 -0.001,-0.133l0,-0.187c-0.001,-0.027 -0.001,-0.027 -0.001,-0.055c0,-0.101 0.005,-0.165 0.076,-0.242c0.082,-0.071 0.145,-0.078 0.248,-0.076l0.044,0c0.046,0 0.093,0 0.14,0.001l0.098,0c0.086,0.001 0.172,0.001 0.257,0.002c0.088,0.001 0.175,0.001 0.263,0.001c0.172,0.001 0.343,0.002 0.515,0.004c-0.001,-0.019 -0.001,-0.038 -0.001,-0.058c-0.002,-0.071 -0.002,-0.142 -0.003,-0.213c0,-0.03 -0.001,-0.061 -0.001,-0.092c-0.001,-0.044 -0.002,-0.088 -0.002,-0.132c0,-0.014 -0.001,-0.027 -0.001,-0.041c0,-0.09 0.014,-0.142 0.076,-0.213c0.082,-0.07 0.144,-0.077 0.248,-0.075l0.043,0c0.047,0 0.094,0 0.141,0.001l0.098,0c0.085,0 0.171,0.001 0.257,0.002c0.087,0.001 0.175,0.001 0.262,0.001c0.172,0.001 0.343,0.002 0.515,0.003c0,-0.01 -0.001,-0.021 -0.001,-0.032c-0.001,-0.05 -0.002,-0.099 -0.003,-0.148c-0.001,-0.017 -0.001,-0.034 -0.002,-0.052c-0.001,-0.101 0.002,-0.166 0.074,-0.244c0.091,-0.077 0.166,-0.077 0.281,-0.076Zm0.195,0.552l-0,2.993l1.088,0l-0,-2.993l-1.088,0Zm-1.632,0.545l-0,2.448l1.088,0l0,-2.448l-1.088,0Zm3.265,0.544l0,1.904l1.088,0l0,-1.904l-1.088,0Zm-4.897,0.272l0,1.632l1.088,0l0,-1.632l-1.088,0Zm6.529,0.816l0,0.816l1.088,0l0,-0.816l-1.088,0Zm1.632,1.36l0,0.544l1.088,0l0,-0.544l-1.088,0Zm2.126,0c0.032,0.065 0.071,0.118 0.116,0.175c0.2,0.258 0.2,0.258 0.186,0.386c-0.016,0.085 -0.046,0.132 -0.115,0.187c-0.051,0.031 -0.091,0.04 -0.15,0.041c-0.014,0 -0.028,0.001 -0.042,0.001c-0.122,-0.02 -0.189,-0.095 -0.259,-0.189c-0.008,-0.011 -0.016,-0.021 -0.024,-0.032c-0.016,-0.021 -0.032,-0.042 -0.047,-0.063c-0.031,-0.041 -0.062,-0.081 -0.093,-0.121c-0.009,-0.012 -0.018,-0.024 -0.027,-0.037c-0.007,-0.008 -0.014,-0.016 -0.021,-0.025l-0.017,0l0,1.31l1.088,0c-0.034,-0.045 -0.068,-0.09 -0.102,-0.136c-0.036,-0.072 -0.025,-0.161 -0.017,-0.239c0.024,-0.064 0.061,-0.097 0.119,-0.136c0.007,-0.048 0.007,-0.048 0.006,-0.106l0,-0.034c0,-0.036 -0.001,-0.072 -0.001,-0.108l0,-0.076c-0.001,-0.066 -0.001,-0.132 -0.002,-0.198c0,-0.079 -0.001,-0.159 -0.001,-0.238c0,-0.121 -0.001,-0.241 -0.002,-0.362l-0.595,0Zm1.139,0c-0.006,0.24 -0.006,0.24 -0.01,0.48c-0.001,0.098 -0.003,0.196 -0.005,0.294c-0.003,0.079 -0.004,0.158 -0.004,0.237c-0.001,0.03 -0.002,0.06 -0.003,0.09c-0.005,0.143 -0.009,0.259 0.093,0.369c0.043,0.04 0.087,0.076 0.133,0.112c0.022,0.018 0.044,0.037 0.066,0.056c0.018,0.014 0.037,0.028 0.055,0.041c0.02,0.016 0.04,0.031 0.06,0.046c0.036,0.028 0.072,0.055 0.108,0.082c0.145,0.111 0.145,0.111 0.17,0.2c0.012,0.097 0.005,0.172 -0.051,0.255c-0.073,0.067 -0.132,0.092 -0.233,0.091c-0.128,-0.019 -0.235,-0.107 -0.333,-0.187c-0.025,-0.025 -0.025,-0.025 -0.046,-0.023l0,0.85l1.088,0l0,-2.993l-1.088,0Zm1.632,0l0,2.177l1.088,0l0,-2.177l-1.088,0Z" style="fill:#f70;fill-rule:nonzero;"/><path d="M17.499,8.963c0.084,0.039 0.126,0.089 0.17,0.17c0.009,0.051 0.008,0.1 0.007,0.152c0,0.014 0,0.028 -0.001,0.043c0,0.045 -0.001,0.09 -0.002,0.135c0,0.03 0,0.061 -0.001,0.092c0,0.075 -0.002,0.15 -0.003,0.224c0.019,-0 0.038,-0 0.058,-0.001c0.071,-0.001 0.142,-0.002 0.213,-0.002c0.03,-0.001 0.061,-0.001 0.091,-0.002c0.045,-0.001 0.089,-0.001 0.133,-0.001c0.02,-0.001 0.02,-0.001 0.041,-0.001c0.09,-0 0.14,0.016 0.212,0.075c0.062,0.065 0.074,0.117 0.077,0.204c-0.003,0.087 -0.015,0.14 -0.077,0.205c-0.086,0.07 -0.147,0.077 -0.253,0.074l-0.043,-0c-0.045,-0 -0.09,-0.001 -0.135,-0.002c-0.031,-0.001 -0.062,-0.001 -0.092,-0.001c-0.075,-0.001 -0.15,-0.002 -0.225,-0.003c0.001,0.028 0.001,0.028 0.001,0.057c0.001,0.071 0.002,0.142 0.003,0.213c0,0.031 0.001,0.061 0.001,0.092c0.001,0.044 0.001,0.088 0.002,0.132c0,0.014 0,0.028 0.001,0.042c0,0.09 -0.017,0.14 -0.076,0.212c-0.065,0.061 -0.117,0.073 -0.204,0.076c-0.087,-0.003 -0.139,-0.015 -0.204,-0.076c-0.071,-0.086 -0.077,-0.147 -0.075,-0.254c0,-0.014 0.001,-0.028 0.001,-0.043c0,-0.045 0.001,-0.09 0.002,-0.135c0,-0.03 0,-0.061 0.001,-0.092c0,-0.075 0.002,-0.15 0.003,-0.224c-0.029,-0 -0.029,-0 -0.058,0.001c-0.071,0.001 -0.142,0.002 -0.212,0.002c-0.031,0.001 -0.062,0.001 -0.092,0.002c-0.045,-0 -0.089,0.001 -0.133,0.001c-0.02,0.001 -0.02,0.001 -0.041,0.001c-0.09,-0 -0.14,-0.016 -0.212,-0.075c-0.062,-0.065 -0.073,-0.118 -0.077,-0.205c0.004,-0.087 0.015,-0.139 0.077,-0.204c0.086,-0.07 0.147,-0.077 0.253,-0.074l0.043,-0c0.045,-0 0.09,0.001 0.135,0.002c0.031,0.001 0.062,0.001 0.092,0.001c0.075,0.001 0.15,0.002 0.225,0.003c0,-0.019 -0.001,-0.038 -0.001,-0.057c-0.001,-0.071 -0.002,-0.142 -0.003,-0.213c0,-0.031 -0.001,-0.061 -0.001,-0.092c-0.001,-0.044 -0.001,-0.088 -0.002,-0.132c0,-0.014 0,-0.028 -0.001,-0.042c0,-0.09 0.017,-0.14 0.076,-0.212c0.09,-0.085 0.189,-0.084 0.306,-0.068Z" style="fill:#f70;fill-rule:nonzero;"/><path d="M6.863,14.668c0.018,-0 0.036,-0.001 0.054,-0.001l0.298,-0c0.086,-0 0.171,-0 0.256,0.001c0.11,-0 0.219,-0 0.329,-0.001l0.373,-0c0.057,-0 0.113,-0 0.17,0.001c0.025,-0.001 0.025,-0.001 0.05,-0.001c0.097,0.001 0.154,0.012 0.23,0.077c0.062,0.065 0.073,0.118 0.077,0.205c-0.004,0.087 -0.015,0.139 -0.077,0.204c-0.091,0.077 -0.166,0.077 -0.28,0.076c-0.018,-0 -0.036,0.001 -0.054,0.001l-0.298,-0c-0.086,-0 -0.171,-0 -0.257,-0.001c-0.109,-0 -0.218,-0 -0.328,0.001l-0.373,-0c-0.057,-0 -0.113,-0 -0.17,-0.001c-0.025,0.001 -0.025,0.001 -0.05,0.001c-0.097,-0.001 -0.154,-0.012 -0.23,-0.077c-0.062,-0.065 -0.074,-0.117 -0.077,-0.204c0.003,-0.087 0.015,-0.14 0.077,-0.205c0.091,-0.077 0.166,-0.077 0.28,-0.076Z" style="fill:#f70;fill-rule:nonzero;"/><path d="M14.158,11.151c0.049,0.046 0.084,0.095 0.12,0.151c0.007,0.011 0.014,0.023 0.022,0.034c0.015,0.024 0.031,0.048 0.046,0.072c0.024,0.038 0.048,0.074 0.072,0.111c0.101,0.155 0.195,0.313 0.287,0.473c0.011,0.018 0.021,0.035 0.032,0.054c0.058,0.103 0.091,0.182 0.092,0.301c-0.03,0.103 -0.081,0.173 -0.175,0.226c-0.085,0.022 -0.154,0.022 -0.236,-0.007c-0.122,-0.081 -0.182,-0.216 -0.252,-0.34c-0.12,-0.212 -0.248,-0.417 -0.385,-0.618c-0.009,-0.013 -0.018,-0.027 -0.028,-0.041c-0.013,-0.018 -0.013,-0.018 -0.025,-0.037c-0.043,-0.07 -0.046,-0.141 -0.038,-0.22c0.03,-0.08 0.071,-0.134 0.136,-0.187c0.112,-0.051 0.231,-0.039 0.332,0.028Z" style="fill:#f70;fill-rule:nonzero;"/><path d="M12.761,9.484c0.046,0.04 0.088,0.082 0.13,0.125c0.009,0.01 0.019,0.02 0.028,0.03c0.071,0.074 0.141,0.15 0.21,0.225c0.015,0.016 0.029,0.032 0.044,0.048c0.091,0.1 0.177,0.204 0.262,0.31c0.017,0.021 0.017,0.021 0.035,0.042c0.016,0.02 0.016,0.02 0.032,0.04c0.009,0.012 0.019,0.023 0.028,0.035c0.053,0.078 0.068,0.146 0.058,0.24c-0.032,0.099 -0.076,0.154 -0.17,0.204c-0.084,0.028 -0.155,0.029 -0.237,-0.003c-0.059,-0.035 -0.097,-0.074 -0.142,-0.125c-0.008,-0.009 -0.016,-0.018 -0.025,-0.027c-0.064,-0.072 -0.124,-0.147 -0.185,-0.222c-0.097,-0.117 -0.203,-0.227 -0.308,-0.337c-0.011,-0.011 -0.022,-0.022 -0.033,-0.034c-0.02,-0.022 -0.041,-0.043 -0.062,-0.065c-0.075,-0.078 -0.125,-0.146 -0.137,-0.256c0.003,-0.079 0.029,-0.143 0.075,-0.207c0.12,-0.099 0.266,-0.113 0.397,-0.023Z" style="fill:#f70;fill-rule:nonzero;"/><path d="M7.756,7.977c0.071,0.089 0.094,0.159 0.085,0.272c-0.032,0.092 -0.072,0.148 -0.153,0.204c-0.043,0.014 -0.084,0.024 -0.128,0.032c-0.018,0.004 -0.018,0.004 -0.037,0.008c-0.027,0.006 -0.053,0.011 -0.08,0.017c-0.069,0.014 -0.138,0.029 -0.207,0.044c-0.014,0.002 -0.028,0.005 -0.042,0.008c-0.19,0.042 -0.375,0.098 -0.561,0.157c-0.107,0.033 -0.192,0.028 -0.294,-0.021c-0.065,-0.058 -0.106,-0.112 -0.119,-0.198c-0.004,-0.084 0.008,-0.146 0.057,-0.217c0.079,-0.076 0.153,-0.11 0.257,-0.142c0.015,-0.005 0.03,-0.01 0.046,-0.015c0.963,-0.303 0.963,-0.303 1.176,-0.149Z" style="fill:#f70;fill-rule:nonzero;"/><path d="M5.632,8.635c0.073,0.038 0.115,0.086 0.152,0.158c0.024,0.086 0.013,0.149 -0.011,0.233c-0.062,0.104 -0.174,0.164 -0.277,0.221c-0.188,0.107 -0.364,0.229 -0.536,0.359c-0.016,0.012 -0.033,0.025 -0.049,0.037c-0.029,0.022 -0.057,0.044 -0.085,0.067c-0.089,0.068 -0.159,0.083 -0.271,0.077c-0.088,-0.014 -0.13,-0.056 -0.189,-0.118c-0.04,-0.086 -0.044,-0.17 -0.028,-0.264c0.044,-0.08 0.1,-0.135 0.171,-0.191c0.011,-0.008 0.022,-0.017 0.033,-0.026c0.828,-0.639 0.828,-0.639 1.09,-0.553Z" style="fill:#f70;fill-rule:nonzero;"/><path d="M11.02,8.32c0.017,0.008 0.035,0.015 0.053,0.023c0.819,0.357 0.819,0.357 0.934,0.586c0.012,0.121 0.009,0.21 -0.068,0.306c-0.075,0.059 -0.142,0.084 -0.239,0.08c-0.105,-0.025 -0.195,-0.087 -0.287,-0.143c-0.054,-0.033 -0.109,-0.066 -0.165,-0.097c-0.011,-0.006 -0.022,-0.013 -0.033,-0.019c-0.127,-0.071 -0.261,-0.13 -0.395,-0.189c-0.061,-0.027 -0.122,-0.055 -0.182,-0.084c-0.014,-0.007 -0.027,-0.013 -0.041,-0.02c-0.059,-0.035 -0.086,-0.075 -0.103,-0.14c-0.013,-0.091 -0.013,-0.162 0.028,-0.245c0.157,-0.174 0.301,-0.143 0.498,-0.058Z" style="fill:#f70;fill-rule:nonzero;"/><path d="M8.754,7.834l0.063,-0c0.289,0.006 0.574,0.04 0.857,0.091c0.015,0.002 0.029,0.005 0.044,0.007c0.11,0.022 0.185,0.058 0.255,0.149c0.039,0.076 0.041,0.153 0.027,0.236c-0.042,0.085 -0.101,0.145 -0.187,0.187c-0.132,0.01 -0.258,-0.008 -0.389,-0.031c-0.141,-0.023 -0.28,-0.04 -0.423,-0.05c-0.021,-0.002 -0.021,-0.002 -0.043,-0.003c-0.07,-0.006 -0.14,-0.01 -0.21,-0.014c-0.026,-0.002 -0.052,-0.004 -0.078,-0.005c-0.012,-0.001 -0.024,-0.002 -0.036,-0.002c-0.105,-0.008 -0.167,-0.05 -0.238,-0.124c-0.041,-0.088 -0.041,-0.169 -0.028,-0.264c0.082,-0.176 0.211,-0.181 0.386,-0.177Z" style="fill:#f70;fill-rule:nonzero;"/><path d="M20.364,16.3l0.066,0c0.09,0.013 0.142,0.054 0.204,0.119c0.041,0.088 0.041,0.169 0.028,0.264c-0.04,0.084 -0.09,0.125 -0.17,0.17c-0.062,0.009 -0.062,0.009 -0.128,0.008c-0.032,0.001 -0.032,0.001 -0.065,0.001c-0.091,-0.013 -0.143,-0.054 -0.205,-0.12c-0.041,-0.087 -0.04,-0.168 -0.027,-0.263c0.06,-0.13 0.157,-0.18 0.297,-0.179Z" style="fill:#f70;fill-rule:nonzero;"/></svg>