<?xml version="1.0" encoding="UTF-8" standalone="no"?><!DOCTYPE svg PUBLIC "-//W3C//DTD SVG 1.1//EN" "http://www.w3.org/Graphics/SVG/1.1/DTD/svg11.dtd"><svg width="100%" height="100%" viewBox="0 0 681 798" version="1.1" xmlns="http://www.w3.org/2000/svg" xmlns:xlink="http://www.w3.org/1999/xlink" xml:space="preserve" xmlns:serif="http://www.serif.com/" style="fill-rule:evenodd;clip-rule:evenodd;stroke-linejoin:round;stroke-miterlimit:2;"><g><g><rect x="340.411" y="490.893" width="64.784" height="138.822" style="fill:#fff;"/><rect x="424.91" y="406.394" width="64.784" height="223.321" style="fill:#fff;"/><rect x="509.409" y="321.895" width="64.784" height="307.82" style="fill:#fff;"/><g><g><rect x="0" y="116.073" width="86.913" height="513.642" style="fill:#fff;"/><rect x="593.908" y="116.073" width="86.913" height="513.642" style="fill:#fff;"/></g><g><path d="M278.954,401.868l401.867,-401.868l0,122.914l-340.41,340.411l-61.457,-61.457Z" style="fill:#fff;"/><path d="M0,0l401.868,401.868l-61.457,61.457l-340.411,-340.411l0,-122.914Z" style="fill:#fff;"/></g></g></g><g><g><text x="-5.882px" y="713.034px" style="font-family:'Arial-Black', 'Arial Black', sans-serif;font-weight:900;font-size:83.159px;fill:#fff;">MA</text><text x="131.57px" y="713.034px" style="font-family:'Arial-Black', 'Arial Black', sans-serif;font-weight:900;font-size:83.159px;fill:#fff;">TRIXQU</text><text x="489.054px" y="713.034px" style="font-family:'Arial-Black', 'Arial Black', sans-serif;font-weight:900;font-size:83.159px;fill:#fff;">ANT</text></g><g><text x="-5.882px" y="796.187px" style="font-family:'Arial-Black', 'Arial Black', sans-serif;font-weight:900;font-size:83.159px;fill:#fff;">►</text><text x="134.384px" y="796.187px" style="font-family:'Arial-Black', 'Arial Black', sans-serif;font-weight:900;font-size:83.159px;fill:#fff;">L<tspan x="247.823px 370.466px 493.109px " y="796.187px 796.187px 796.187px ">ABS</tspan></text></g><text x="611.135px" y="796.187px" style="font-family:'AppleSDGothicNeo-Heavy', 'Apple SD Gothic Neo';font-weight:900;font-size:83.159px;fill:#fff;">◀</text></g></g></svg>